<svg width="33" height="32" viewBox="0 0 33 32" fill="none" xmlns="http://www.w3.org/2000/svg">
<path d="M19.9621 31.9997H16.6699C16.6966 31.4527 16.7187 30.9053 16.7513 30.3587C16.8468 28.7533 16.9349 27.1474 17.0496 25.5432C17.1176 24.5898 17.2932 23.6507 17.5507 22.7295C18.0951 20.7819 19.144 19.191 20.8658 18.0837C22.3114 17.1545 23.9402 16.792 25.6132 16.5913C26.4656 16.4891 27.3238 16.4236 28.1808 16.3718C29.3235 16.303 30.4675 16.2609 31.6111 16.2129C31.8998 16.2008 32.1897 16.2112 32.4922 16.2112C32.4943 16.2417 32.5001 16.2821 32.5001 16.3222C32.4943 18.8973 32.5164 21.474 32.2477 24.0399C32.128 25.1865 31.929 26.3196 31.5397 27.4107C31.0633 28.7466 30.3064 29.8535 29.0227 30.5477C27.7539 31.2337 26.3788 31.5574 24.9657 31.6918C23.5026 31.8307 22.0307 31.8762 20.5625 31.963C20.3622 31.9746 20.162 31.9872 19.9621 31.9993V31.9997Z" fill="#313131"/>
<path d="M0.500275 15.832C0.500275 14.7205 0.500275 13.6095 0.500275 12.4984C0.510705 12.4025 0.526142 12.3069 0.530731 12.2105C0.591644 10.9493 0.62961 9.68635 0.716389 8.42676C0.797328 7.25604 1.00176 6.10368 1.33344 4.97343C1.92964 2.94073 3.18752 1.56265 5.22476 0.902188C6.71044 0.419881 8.24035 0.215443 9.78653 0.137422C11.3665 0.0577332 12.9502 0.0418788 14.5323 0.00683223C15.1206 -0.00610161 15.7092 0.00474613 16.3175 0.00474613C16.2958 0.575921 16.2821 1.12916 16.252 1.68114C16.1732 3.12806 16.0964 4.57498 16 6.02107C15.9304 7.06454 15.7635 8.09549 15.4977 9.1085C15.0897 10.6639 14.3604 12.0345 13.1626 13.1301C12.0557 14.1427 10.7361 14.7385 9.28963 15.0768C8.21574 15.3276 7.12598 15.474 6.02622 15.5429C4.82173 15.618 3.61683 15.681 2.41151 15.7448C1.77485 15.7782 1.13735 15.8028 0.500275 15.832Z" fill="#313131"/>
<path d="M0.500417 19.4991V16.1655C0.638096 16.1785 0.775776 16.1968 0.913872 16.2039C2.63903 16.289 4.36461 16.3629 6.08894 16.4605C7.16785 16.5218 8.23757 16.6712 9.29061 16.9207C12.4877 17.6788 14.5867 19.5947 15.4691 22.7902C15.7928 23.9621 15.9572 25.1612 16.0377 26.3703C16.1287 27.7334 16.1871 29.0985 16.2588 30.4628C16.286 30.9752 16.3102 31.4875 16.3356 31.9999H13.0434C12.975 31.9915 12.907 31.979 12.8386 31.9761C11.501 31.9131 10.1617 31.8768 8.82667 31.7817C7.5521 31.6907 6.29797 31.4675 5.08347 31.0449C3.3825 30.4528 2.18761 29.3493 1.55179 27.6499C1.15794 26.5973 0.902608 25.5096 0.807066 24.3965C0.680235 22.9253 0.623494 21.4484 0.53588 19.9739C0.526284 19.8154 0.512099 19.6572 0.5 19.4991H0.500417Z" fill="#313131"/>
<path d="M32.491 15.7762C32.0626 15.7762 31.6474 15.79 31.2336 15.7737C30.1242 15.729 29.0144 15.6886 27.9067 15.6151C26.3113 15.5092 24.7184 15.374 23.171 14.9276C20.2438 14.0831 18.3789 12.186 17.5491 9.26296C17.2896 8.34924 17.1173 7.41634 17.0493 6.47008C16.9349 4.87964 16.8457 3.28752 16.753 1.69582C16.7209 1.14217 16.7092 0.587268 16.6871 0.00232399C16.7635 0.00232399 16.8302 0.00148955 16.8966 0.00232399C18.7569 0.0302778 20.6185 0.030695 22.4776 0.0945298C24.1498 0.151689 25.8153 0.308147 27.4311 0.790871C28.1596 1.00824 28.8488 1.30948 29.4834 1.73379C30.5243 2.43013 31.1263 3.44189 31.5394 4.58758C31.9345 5.68404 32.1293 6.82514 32.2495 7.97917C32.5152 10.5321 32.4935 13.0947 32.4998 15.6564C32.4998 15.7036 32.4931 15.7507 32.491 15.7762Z" fill="#313131"/>
</svg>
