<svg width="33" height="32" viewBox="0 0 33 32" fill="none" xmlns="http://www.w3.org/2000/svg">
<path fill-rule="evenodd" clip-rule="evenodd" d="M0.5 6.33859C0.5 5.67347 1.03726 5.13428 1.70001 5.13428H23.3587C24.7736 5.13428 25.9714 5.28305 26.9703 5.56678C26.9846 5.57082 26.9987 5.57513 27.0128 5.5797C28.0404 5.91321 28.9134 6.42208 29.6924 7.13864C29.7093 7.15414 29.7257 7.17013 29.7416 7.18657C30.4742 7.94219 31.0121 8.80629 31.3262 9.81082C31.6266 10.7718 31.7782 11.9565 31.7782 13.371V15.1291C31.7782 17.4703 31.3744 19.4796 30.3445 20.8479L30.3444 20.848C29.6488 21.7718 28.6916 22.4221 27.5414 22.8451L32.255 29.0619C32.5311 29.4261 32.5777 29.916 32.3752 30.326C32.1726 30.7361 31.756 30.9955 31.3 30.9955H24.5499C24.1564 30.9955 23.7879 30.8019 23.5637 30.4773L18.6512 23.3656H8.92825V29.7912C8.92825 30.4563 8.39099 30.9955 7.72824 30.9955H1.70001C1.03726 30.9955 0.5 30.4563 0.5 29.7912V6.33859ZM2.90001 7.5429V28.5869H6.52824V22.1613C6.52824 21.4961 7.0655 20.9569 7.72824 20.9569H19.2795C19.673 20.9569 20.0415 21.1506 20.2657 21.4751L25.1782 28.5869H28.879L24.5334 22.8554C24.2773 22.5176 24.2173 22.0695 24.3754 21.6759C24.5335 21.2822 24.8864 21.0012 25.3043 20.9361C26.9217 20.6841 27.8857 20.1181 28.4295 19.396C28.9875 18.6547 29.3782 17.2884 29.3782 15.1291V13.371C29.3782 12.1131 29.2414 11.1882 29.0362 10.5318C28.8477 9.92885 28.5267 9.39395 28.0454 8.89104C27.5367 8.42919 26.9795 8.10329 26.2953 7.87832C25.5641 7.67337 24.6025 7.5429 23.3587 7.5429H2.90001ZM6.52824 11.5073C6.52824 10.8422 7.0655 10.303 7.72824 10.303H22.3841C22.8604 10.303 23.3077 10.3427 23.7054 10.4349C24.0892 10.5239 24.511 10.681 24.8572 10.976C25.5244 11.5445 25.75 12.4197 25.75 13.2654V15.2345C25.75 16.1025 25.5307 16.9849 24.8572 17.5587C24.4906 17.8712 24.0459 18.0143 23.6711 18.0896C23.2892 18.1664 22.8624 18.1953 22.4173 18.1966C22.4063 18.1969 22.3952 18.1971 22.3841 18.1971H7.72824C7.0655 18.1971 6.52824 17.6579 6.52824 16.9928V11.5073ZM22.3528 15.7884C22.3632 15.7882 22.3737 15.788 22.3841 15.788C22.7573 15.788 23.0225 15.7636 23.1996 15.728C23.2385 15.7201 23.2692 15.7125 23.2927 15.706C23.3182 15.6304 23.3499 15.4823 23.3499 15.2345V13.2654C23.3499 13.0356 23.3183 12.8965 23.2933 12.8262C23.2922 12.8231 23.2911 12.8201 23.2901 12.8174C23.2631 12.8077 23.2225 12.795 23.1651 12.7817C22.9943 12.7421 22.7379 12.7116 22.3841 12.7116H8.92825V15.7884H22.3528ZM23.2733 12.7803C23.273 12.7798 23.2728 12.7795 23.2728 12.7795C23.2728 12.7795 23.273 12.7798 23.2733 12.7803ZM23.2709 15.7576C23.2709 15.7576 23.2711 15.7574 23.2714 15.7569C23.2711 15.7574 23.271 15.7576 23.2709 15.7576Z" fill="#313131"/>
<path d="M30.0843 6.04898C31.2018 6.04898 32.1084 5.14262 32.1084 4.02449C32.1084 2.90636 31.2018 2 30.0843 2C28.9659 2 28.0594 2.90636 28.0594 4.02449C28.0594 5.14262 28.9659 6.04898 30.0843 6.04898Z" fill="black"/>
</svg>
