<svg width="33" height="32" viewBox="0 0 33 32" fill="none" xmlns="http://www.w3.org/2000/svg">
<path fill-rule="evenodd" clip-rule="evenodd" d="M11.7413 4.82793C7.95918 4.91836 4.928 5.17016 3.88235 5.48076C2.48182 5.89682 1.39603 7.09545 1.12187 8.52816C0.955926 9.39578 0.726106 11.1341 0.615016 12.363C0.460654 14.0701 0.461907 18.0194 0.617333 19.7836C0.840327 22.3146 1.11373 23.9872 1.40373 24.5949C1.91096 25.6575 2.78773 26.428 3.86431 26.7571C4.66918 27.0031 6.50518 27.1898 9.6122 27.3415C11.8393 27.4502 21.2068 27.4508 23.3889 27.3424C26.1119 27.207 27.8525 27.0514 28.7845 26.8599C30.0511 26.5997 31.209 25.6353 31.697 24.4344C31.9317 23.8567 32.2113 22.0051 32.4181 19.6584C32.5411 18.2626 32.5216 13.732 32.3863 12.2377C32.2244 10.4509 31.9189 8.39465 31.7478 7.93971C31.2695 6.66812 30.0956 5.64752 28.8056 5.38201C27.6361 5.14129 25.1586 4.95399 21.7607 4.84941C19.9969 4.79512 13.6798 4.78159 11.7413 4.82793ZM17.4285 13.6541C19.6562 14.9498 21.5144 16.043 21.5578 16.0836C21.6195 16.1411 20.826 16.628 17.9257 18.3124C15.8848 19.4978 14.0106 20.588 13.7609 20.7351L13.3069 21.0026V16.1505C13.3069 13.4818 13.3229 11.2984 13.3424 11.2984C13.362 11.2984 15.2007 12.3585 17.4285 13.6541Z" fill="#313131"/>
</svg>
