<svg width="31" height="32" viewBox="0 0 31 32" fill="none" xmlns="http://www.w3.org/2000/svg">
<path fill-rule="evenodd" clip-rule="evenodd" d="M15.9837 0.160727C15.7328 0.278 15.3942 0.568833 14.655 1.30206C14.1093 1.84323 13.6467 2.35037 13.6271 2.42903C13.565 2.67749 13.6577 2.88741 13.8691 2.97666C13.9777 3.02248 14.1101 3.04461 14.1635 3.0258C14.2167 3.00706 14.6852 2.57313 15.2045 2.06154C16.1806 1.09979 16.4957 0.882418 16.9136 0.882418C17.425 0.882418 17.5019 0.951804 22.0363 5.50371C24.4308 7.90747 26.4402 9.97288 26.5017 10.0935C26.6458 10.3765 26.6459 10.8758 26.502 11.1591C26.4407 11.2797 25.4313 12.3445 24.2588 13.5252L22.127 15.672H16.2428C13.0065 15.672 10.3586 15.6515 10.3586 15.6264C10.3586 15.6014 11.1452 14.7893 12.1066 13.8218C13.9687 11.948 13.9953 11.9116 13.7378 11.5923C13.654 11.4885 13.5559 11.4474 13.3916 11.4474C13.1737 11.4474 13.0575 11.5525 11.0582 13.5558L8.95395 15.6642L7.92389 15.6845C6.98184 15.703 6.86997 15.7175 6.61483 15.8534C6.17864 16.0857 6.00322 16.2366 5.77292 16.5777C5.34223 17.2156 5.35958 16.8896 5.3785 23.9824L5.39554 30.3703L5.56004 30.7226C5.79146 31.2181 6.12158 31.5579 6.60272 31.7957L7.01606 32H17.7563H28.4966L28.9141 31.7937C29.3681 31.5693 29.6852 31.2486 29.9139 30.7825C30.0436 30.5183 30.0562 30.3953 30.0739 29.2197C30.0958 27.7695 30.0781 27.7065 29.6489 27.7065C29.2193 27.7065 29.1851 27.8046 29.1495 29.1389C29.1206 30.2199 29.1075 30.3251 28.9747 30.5396C28.8957 30.6671 28.7271 30.8363 28.6001 30.9156L28.3691 31.0598L17.8178 31.0762L7.26652 31.0926L6.98734 30.9508C6.82359 30.8677 6.63044 30.6968 6.52006 30.5374L6.33197 30.2656V26.7766V23.2876L17.7369 23.2717L29.1417 23.2559L29.1612 24.8479C29.1791 26.3098 29.1904 26.4507 29.2996 26.5718C29.4537 26.7426 29.8364 26.7512 29.9841 26.5873C30.0807 26.4801 30.0877 26.1014 30.0719 21.8079L30.0547 17.145L29.8698 16.8098C29.6291 16.3735 29.1677 15.962 28.7383 15.8007C28.4142 15.679 28.264 15.672 25.9633 15.672C24.6255 15.672 23.5309 15.6514 23.5309 15.6264C23.5309 15.6012 24.3567 14.748 25.366 13.7303C26.4631 12.624 27.251 11.7791 27.3253 11.6292C27.6294 11.0152 27.6314 10.3045 27.3306 9.65886C27.2295 9.44192 26.1087 8.27847 22.6953 4.84721C17.574 -0.300907 17.9372 0.00340135 16.9136 0.00340135C16.4113 0.00340135 16.2689 0.0274703 15.9837 0.160727ZM15.9394 3.41304C15.5419 3.53802 15.1996 3.81024 14.3407 4.68468C13.4017 5.64073 13.2056 5.97945 13.2056 6.64617C13.2056 7.09345 13.3869 7.58216 13.6833 7.93398C14.1118 8.44237 15.029 8.66451 15.735 8.43084C16.0281 8.33387 16.196 8.19573 17.056 7.34417C18.2227 6.1888 18.3786 5.93983 18.3747 5.23814C18.3713 4.64732 18.1886 4.2332 17.7564 3.83656C17.2469 3.36897 16.5767 3.21278 15.9394 3.41304ZM6.60003 9.38839C-0.0884013 16.1068 0.338857 15.6138 0.338857 16.6122C0.338857 17.5018 0.416019 17.6176 2.22975 19.4507C3.07821 20.3083 3.84945 21.0505 3.94353 21.1002C4.15241 21.2104 4.39719 21.159 4.52298 20.9786C4.73537 20.6742 4.69098 20.6136 3.00398 18.9036C1.67214 17.5536 1.37985 17.2256 1.31842 17.0123C1.21941 16.6688 1.22471 16.4672 1.33996 16.1871C1.4075 16.0229 3.16049 14.221 7.26758 10.0935C10.475 6.87025 13.1281 4.15547 13.1632 4.06064C13.2409 3.85129 13.1632 3.61035 12.9877 3.51602C12.621 3.31896 12.8743 3.0861 6.60003 9.38839ZM16.8717 4.34984C17.3595 4.55449 17.5797 5.11127 17.363 5.59209C17.2078 5.93645 15.6492 7.49378 15.3959 7.55765C14.6593 7.74325 14.0033 7.14328 14.165 6.4318C14.2103 6.23211 14.3822 6.02263 15.0833 5.31285C16.1346 4.24868 16.3517 4.13172 16.8717 4.34984ZM7.28362 12.8368C3.92111 16.2114 3.59555 16.5562 3.59555 16.7418C3.59555 17.0137 3.87254 17.2658 4.10896 17.209C4.21365 17.1839 5.58152 15.8557 7.93949 13.4896C11.8358 9.57982 11.7611 9.66675 11.4979 9.34853C11.4378 9.27588 11.2948 9.19816 11.1802 9.17591C10.9736 9.13579 10.9389 9.16839 7.28362 12.8368ZM28.5246 16.7285C28.6434 16.7925 28.8255 16.9501 28.9294 17.0788L29.1183 17.3129L29.138 18.3728L29.1577 19.4328H17.7292H6.30075L6.30113 18.5709C6.30131 18.0969 6.33091 17.6025 6.36693 17.4723C6.44634 17.1853 6.76072 16.8119 7.01749 16.6996C7.17075 16.6325 9.17819 16.6166 17.7573 16.6146C27.9176 16.6123 28.3166 16.6165 28.5246 16.7285ZM29.1495 21.3445V22.316H17.7251H6.30075V21.3445V20.373H17.7251H29.1495V21.3445ZM15.3112 26.7723C15.2025 26.804 15.041 26.9164 14.9522 27.0222C14.7924 27.2129 14.791 27.2243 14.791 28.3027C14.791 28.9011 14.8184 29.463 14.8519 29.5514C14.8853 29.6398 15.0047 29.7685 15.1172 29.8373C15.3145 29.958 15.4334 29.9625 18.493 29.9627C21.9998 29.9629 21.9257 29.9711 22.1179 29.5645C22.1995 29.3918 22.2199 29.1419 22.2199 28.3174C22.2199 27.3474 22.2115 27.2736 22.0773 27.0733C21.9958 26.9515 21.8419 26.8282 21.7183 26.7854C21.4548 26.6943 15.6207 26.6824 15.3112 26.7723ZM23.8639 26.7723C23.7551 26.804 23.5936 26.9164 23.5049 27.0222C23.3451 27.2129 23.3437 27.2243 23.3437 28.3027C23.3437 28.9011 23.3711 29.463 23.4045 29.5514C23.438 29.6398 23.5574 29.7685 23.6698 29.8373C23.8601 29.9538 23.985 29.9625 25.4662 29.9625C26.9474 29.9625 27.0724 29.9538 27.2626 29.8373C27.375 29.7685 27.4944 29.6398 27.5279 29.5514C27.5614 29.463 27.5888 28.9011 27.5888 28.3027C27.5888 27.2263 27.5871 27.2126 27.4287 27.0236C27.3406 26.9186 27.1651 26.8037 27.0385 26.7685C26.7554 26.6895 24.1378 26.6927 23.8639 26.7723ZM21.27 28.3489L21.2878 29.0227H18.5076H15.7274V28.3326V27.6425L18.4899 27.6588L21.2523 27.6751L21.27 28.3489ZM26.6524 28.3333V29.0227H25.4662H24.2801V28.3333V27.6438H25.4662H26.6524V28.3333ZM9.52423 29.1527C9.30923 29.3225 9.29999 29.634 9.50419 29.8267C9.64497 29.9593 9.6911 29.9629 11.2783 29.9629C12.1746 29.9629 12.9555 29.9446 13.0136 29.9222C13.1727 29.8609 13.2917 29.5297 13.2214 29.344C13.1041 29.0343 13.0599 29.0269 11.319 29.0247C9.76265 29.0228 9.68124 29.0286 9.52423 29.1527Z" fill="url(#paint0_linear_264_748)"/>
<defs>
<linearGradient id="paint0_linear_264_748" x1="0.333374" y1="0" x2="30.682" y2="0.581663" gradientUnits="userSpaceOnUse">
<stop stop-color="#05D975"/>
<stop offset="1" stop-color="#04A65B"/>
</linearGradient>
</defs>
</svg>
