<svg width="31" height="32" viewBox="0 0 31 32" fill="none" xmlns="http://www.w3.org/2000/svg">
<path fill-rule="evenodd" clip-rule="evenodd" d="M8.17289 3.55504C4.13596 5.50743 0.795523 7.15596 0.749765 7.21853C0.681503 7.31186 0.666626 8.88556 0.666626 16.0023C0.666626 24.1699 0.67294 24.6797 0.776019 24.7982C0.90004 24.9409 15.5019 32 15.673 32C15.8462 32 30.4394 24.9431 30.5623 24.7999C30.6653 24.6798 30.6717 24.1691 30.6717 15.9973C30.6717 7.82551 30.6653 7.3148 30.5623 7.19478C30.4231 7.03262 15.8304 -0.0071832 15.6484 5.5018e-06C15.5738 0.00294349 12.2099 1.60271 8.17289 3.55504ZM22.4613 4.26347C26.111 6.02414 29.088 7.47407 29.0768 7.48564C29.0656 7.4972 28.1953 7.92446 27.1429 8.43511L25.2294 9.36345L24.2468 8.8795C23.7063 8.61326 20.6979 7.15933 17.5613 5.64839C14.4248 4.13751 11.8579 2.88486 11.8573 2.86474C11.8548 2.79179 15.6404 0.999611 15.7317 1.03055C15.7832 1.04799 18.8115 2.50286 22.4613 4.26347ZM17.4577 6.63637C21.1132 8.39841 24.105 9.85416 24.1061 9.87148C24.1081 9.90379 21.4785 11.184 21.41 11.184C21.3755 11.184 18.251 9.68132 10.6491 6.00889L7.97323 4.71623L8.17995 4.62259C8.29366 4.57108 8.89132 4.28229 9.50811 3.9808C10.1249 3.67937 10.6704 3.43271 10.7204 3.43271C10.7703 3.43271 13.8021 4.87439 17.4577 6.63637ZM13.9501 8.64164L20.9513 12.0285L20.9675 14.9316C20.9837 17.8111 20.9849 17.8358 21.1191 17.9786C21.1935 18.0578 21.3223 18.1227 21.4053 18.1227C21.5819 18.1227 25.1952 16.3997 25.311 16.2603C25.3705 16.1886 25.3971 15.4555 25.4208 13.2294L25.452 10.2929L27.5739 9.2695C28.7408 8.70659 29.7043 8.24601 29.7149 8.24601C29.7254 8.24601 29.734 11.8406 29.734 16.2339V24.2216L23.0071 27.4701C19.3074 29.2567 16.2553 30.7279 16.2247 30.7394C16.1925 30.7515 16.1692 27.3992 16.1692 22.7673V14.7743L17.6523 14.0574C18.468 13.6632 19.2204 13.2984 19.3244 13.2469C19.59 13.1151 19.7021 12.8624 19.5945 12.6379C19.5494 12.5437 19.433 12.4285 19.3359 12.382C19.1679 12.3015 19.098 12.3269 17.8987 12.9039C17.2053 13.2375 16.4194 13.611 16.1522 13.7337L15.6663 13.957L15.0895 13.6888C14.7722 13.5413 14.4364 13.3898 14.343 13.3521C14.1021 13.2549 13.8525 13.3582 13.7558 13.5952C13.6253 13.9153 13.7432 14.0488 14.4969 14.4346L15.1688 14.7784L15.1689 22.7693C15.169 27.1643 15.1453 30.7509 15.1162 30.7394C15.0872 30.7279 12.0351 29.2559 8.33385 27.4683L1.60428 24.2181V16.232C1.60428 11.8397 1.61466 8.24601 1.62741 8.24601C1.6401 8.24601 3.98031 9.3712 6.82778 10.7464C9.86936 12.2154 12.0775 13.2469 12.1806 13.2469C12.2771 13.2469 12.4123 13.1906 12.4811 13.1218C12.6381 12.9649 12.6466 12.615 12.4967 12.4802C12.4365 12.4262 11.0934 11.7584 9.51186 10.9962C4.47014 8.56663 4.15365 8.41348 3.18549 7.93471L2.23508 7.46463L4.52946 6.35863C5.79142 5.75035 6.85204 5.2532 6.88642 5.25376C6.9208 5.25439 10.0995 6.77896 13.9501 8.64164ZM24.4831 13.2369V15.6649L23.2374 16.2687C22.5522 16.6008 21.9756 16.8725 21.9559 16.8725C21.9363 16.8725 21.9202 15.7765 21.9202 14.4369V12.0014L23.1235 11.4107C23.7853 11.0859 24.362 10.8176 24.405 10.8145C24.4662 10.8101 24.4831 11.3332 24.4831 13.2369ZM2.79655 19.2876C2.64952 19.4744 2.63046 19.6753 2.7451 19.8284C2.85643 19.9771 7.04026 21.9966 7.23892 21.9976C7.62211 21.9993 7.8352 21.5126 7.56803 21.2459C7.38025 21.0585 3.31351 19.1228 3.1076 19.1228C2.98595 19.1228 2.88331 19.1772 2.79655 19.2876ZM2.91807 21.3896C2.69847 21.5028 2.61445 21.7733 2.73241 21.9869C2.85168 22.203 4.96297 23.2642 5.28484 23.2698C5.68216 23.2768 5.88025 22.7852 5.58933 22.5142C5.44768 22.3822 3.44353 21.396 3.20268 21.3397C3.13154 21.3231 3.00339 21.3455 2.91807 21.3896Z" fill="url(#paint0_linear_264_740)"/>
<defs>
<linearGradient id="paint0_linear_264_740" x1="0.666626" y1="0" x2="31.2789" y2="0.591815" gradientUnits="userSpaceOnUse">
<stop stop-color="#05D975"/>
<stop offset="1" stop-color="#04A65B"/>
</linearGradient>
</defs>
</svg>
