<svg width="32" height="32" viewBox="0 0 32 32" fill="none" xmlns="http://www.w3.org/2000/svg">
<path fill-rule="evenodd" clip-rule="evenodd" d="M1.10466 0.0851504C0.765655 0.191872 0.187446 0.789842 0.0834919 1.14126C-0.10784 1.78807 0.0270594 2.30374 0.515197 2.79126C0.959059 3.2345 1.20751 3.30631 2.2981 3.30631H3.16469L3.20565 3.56501C3.22824 3.70733 3.74428 7.8082 4.35254 12.6782C5.2404 19.7868 5.48692 21.5987 5.60262 21.8673C5.78663 22.2946 6.3553 22.8342 6.80338 23.0068C7.13852 23.1359 7.4412 23.1398 17.2332 23.1398H27.3178L27.6408 22.9907C28.1186 22.7701 28.5501 22.3385 28.7504 21.8806C28.8458 21.6625 29.6324 18.6436 30.4983 15.1719C32.2061 8.32483 32.1615 8.56808 31.7907 8.12795C31.4252 7.69416 32.2745 7.72141 19.1349 7.72141C10.3517 7.72141 7.114 7.70072 7.114 7.64463C7.114 7.41574 6.2711 1.42934 6.20203 1.16775C6.09573 0.764938 5.54156 0.198149 5.13741 0.0788727C4.76905 -0.0298492 1.45355 -0.0246752 1.10466 0.0851504ZM9.12484 25.4909C7.3735 25.9613 6.28996 27.7724 6.73624 29.4836C7.19834 31.2555 9.00901 32.3485 10.7374 31.8988C12.0493 31.5576 13.0224 30.4724 13.2152 29.1355C13.5445 26.8523 11.3468 24.894 9.12484 25.4909ZM22.3868 25.4909C20.6355 25.9613 19.5519 27.7724 19.9982 29.4836C20.4603 31.2555 22.271 32.3485 23.9994 31.8988C25.3113 31.5576 26.2844 30.4724 26.4772 29.1355C26.8065 26.8523 24.6088 24.894 22.3868 25.4909Z" fill="white"/>
</svg>
