<svg width="531" height="321" viewBox="0 0 531 321" fill="none" xmlns="http://www.w3.org/2000/svg">
<path d="M76.8025 315.675V297.276H83.183C84.0495 297.276 84.8484 297.344 85.5799 297.479C86.3113 297.614 86.9528 297.85 87.5042 298.188C88.0556 298.514 88.4832 298.975 88.787 299.572C89.0908 300.157 89.2371 300.911 89.2371 301.811C89.2371 302.835 88.9783 303.713 88.4719 304.444C87.9655 305.176 87.2341 305.705 86.3001 306.031C87.5267 306.2 88.4944 306.695 89.1809 307.505C89.8673 308.315 90.2049 309.362 90.2049 310.645C90.2049 311.635 90.0136 312.456 89.6197 313.109C89.2259 313.762 88.697 314.279 88.0218 314.662C87.3466 315.045 86.5814 315.315 85.7374 315.472C84.8822 315.63 83.9932 315.709 83.0592 315.709H76.8137L76.8025 315.675ZM78.6818 305.502H82.4515C83.093 305.502 83.7119 305.446 84.3083 305.322C84.9047 305.198 85.4448 304.996 85.9062 304.726C86.3788 304.444 86.739 304.084 87.009 303.634C87.2791 303.184 87.4141 302.621 87.4141 301.946C87.4141 301.08 87.2116 300.438 86.8177 300.022C86.4239 299.605 85.9062 299.324 85.2648 299.189C84.6346 299.054 83.9369 298.975 83.1942 298.975H78.6705V305.513L78.6818 305.502ZM78.6818 313.987H82.9804C83.5543 313.987 84.1507 313.953 84.7809 313.886C85.4111 313.818 85.985 313.672 86.5251 313.458C87.0653 313.244 87.4929 312.895 87.8305 312.434C88.1568 311.961 88.3256 311.342 88.3256 310.555C88.3256 309.857 88.1906 309.294 87.9318 308.867C87.673 308.439 87.3241 308.09 86.874 307.843C86.4351 307.595 85.94 307.415 85.3886 307.325C84.8372 307.235 84.2858 307.179 83.7119 307.179H78.693V313.998L78.6818 313.987Z" fill="#31585C"/>
<path d="M101.019 315.889C99.1062 315.889 97.5307 315.484 96.2816 314.673C95.0326 313.863 94.0986 312.749 93.4796 311.331C92.8607 309.913 92.5569 308.293 92.5569 306.492C92.5569 304.692 92.872 303.083 93.4909 301.665C94.1098 300.247 95.0551 299.133 96.3154 298.311C97.5758 297.49 99.1512 297.073 101.042 297.073C102.268 297.073 103.371 297.265 104.316 297.636C105.273 298.007 106.061 298.548 106.702 299.245C107.332 299.943 107.782 300.798 108.041 301.777H106.139C105.79 300.821 105.172 300.078 104.283 299.549C103.394 299.02 102.313 298.75 101.042 298.75C99.5 298.75 98.2397 299.11 97.2832 299.819C96.3154 300.528 95.6065 301.462 95.1451 302.633C94.6837 303.792 94.4587 305.052 94.4587 306.402C94.4587 307.831 94.695 309.126 95.1676 310.307C95.6402 311.489 96.3604 312.423 97.3282 313.132C98.2959 313.829 99.545 314.189 101.053 314.189C101.886 314.189 102.662 314.077 103.371 313.841C104.08 313.604 104.699 313.267 105.217 312.817C105.734 312.366 106.106 311.815 106.331 311.174H108.39C108.097 312.164 107.602 313.008 106.905 313.706C106.207 314.414 105.363 314.943 104.373 315.315C103.371 315.686 102.257 315.877 101.03 315.877L101.019 315.889Z" fill="#31585C"/>
<path d="M111.36 315.675V297.276H123.57V298.964H113.24V305.705H122.535V307.426H113.24V313.987H123.57V315.675H111.36Z" fill="#31585C"/>
<path d="M132.516 320.851V313.975C133.18 313.919 133.686 313.728 134.035 313.402C134.395 313.075 134.665 312.67 134.857 312.209C135.026 311.781 135.172 311.252 135.273 310.645C135.374 310.037 135.464 309.395 135.521 308.72C135.577 308.045 135.633 307.381 135.667 306.717C135.757 305.086 135.813 303.488 135.858 301.923C135.903 300.359 135.937 298.806 135.948 297.265H147.528V313.975H149.79V320.851H147.91V315.675H134.407V320.851H132.505H132.516ZM136.061 313.975H145.66V298.953H137.794L137.535 306.818C137.513 307.235 137.501 307.741 137.467 308.338C137.445 308.934 137.377 309.564 137.287 310.217C137.186 310.87 137.04 311.522 136.849 312.164C136.646 312.816 136.387 313.413 136.05 313.975H136.061Z" fill="#31585C"/>
<path d="M151.5 315.855V313.975C151.894 313.953 152.254 313.863 152.569 313.705C152.884 313.537 153.154 313.312 153.391 313.03C153.627 312.749 153.807 312.423 153.919 312.051C154.088 311.534 154.223 310.96 154.313 310.329C154.403 309.711 154.46 309.069 154.493 308.416C154.527 307.764 154.55 307.156 154.55 306.582L154.707 297.265H166.804V315.663H164.925V298.953H156.598L156.44 305.592C156.418 306.593 156.395 307.606 156.361 308.619C156.328 309.632 156.238 310.588 156.091 311.477C155.945 312.366 155.675 313.12 155.27 313.728C154.921 314.369 154.448 314.864 153.841 315.225C153.233 315.585 152.457 315.787 151.5 315.832V315.855Z" fill="#31585C"/>
<path d="M170.315 315.675L174.321 308.281C173.05 308 172.026 307.437 171.238 306.56C170.45 305.693 170.056 304.5 170.056 302.992C170.056 301.946 170.214 301.068 170.54 300.348C170.867 299.628 171.317 299.043 171.902 298.581C172.487 298.12 173.196 297.794 174.006 297.58C174.816 297.377 175.728 297.265 176.718 297.265H183.403V315.663H181.523V308.608H176.189L172.42 315.663H170.315V315.675ZM177.157 306.931H181.535V298.964H176.741C175.739 298.964 174.873 299.099 174.153 299.369C173.432 299.639 172.881 300.055 172.51 300.629C172.138 301.203 171.947 301.968 171.947 302.925C171.947 303.96 172.194 304.782 172.678 305.356C173.162 305.941 173.804 306.346 174.591 306.582C175.379 306.819 176.234 306.931 177.157 306.931Z" fill="#31585C"/>
<path d="M193.17 315.675L199.101 306.459L193.35 297.276H195.691L200.327 304.928L204.93 297.276H207.248L201.52 306.391L207.45 315.686H205.155L200.293 307.978L195.398 315.686H193.159L193.17 315.675Z" fill="#31585C"/>
<path d="M216.678 315.889C214.765 315.889 213.178 315.484 211.907 314.662C210.635 313.852 209.667 312.727 209.015 311.309C208.362 309.891 208.036 308.282 208.036 306.492C208.036 304.703 208.362 303.071 209.015 301.653C209.667 300.236 210.624 299.11 211.907 298.3C213.178 297.479 214.776 297.073 216.678 297.073C218.58 297.073 220.178 297.479 221.438 298.3C222.71 299.11 223.666 300.236 224.319 301.653C224.972 303.083 225.298 304.692 225.298 306.492C225.298 308.293 224.972 309.88 224.319 311.309C223.666 312.738 222.71 313.852 221.438 314.662C220.166 315.484 218.58 315.889 216.678 315.889ZM216.678 314.201C218.208 314.201 219.458 313.852 220.448 313.165C221.438 312.468 222.17 311.534 222.642 310.363C223.115 309.193 223.362 307.899 223.362 306.504C223.362 305.446 223.227 304.444 222.957 303.51C222.687 302.576 222.271 301.755 221.719 301.035C221.168 300.326 220.47 299.763 219.626 299.369C218.782 298.975 217.803 298.773 216.678 298.773C215.17 298.773 213.91 299.122 212.919 299.831C211.918 300.539 211.175 301.473 210.68 302.644C210.185 303.814 209.937 305.108 209.937 306.515C209.937 307.921 210.185 309.182 210.669 310.352C211.153 311.522 211.895 312.456 212.908 313.165C213.91 313.863 215.17 314.223 216.678 314.223V314.201Z" fill="#31585C"/>
<path d="M228.448 315.675V297.276H234.75C236.089 297.276 237.226 297.49 238.182 297.929C239.139 298.368 239.87 299.032 240.377 299.921C240.883 300.81 241.142 301.946 241.142 303.319C241.142 304.692 240.838 305.806 240.241 306.729C239.645 307.651 238.824 308.338 237.8 308.788C236.764 309.238 235.583 309.463 234.244 309.463H230.316V315.686H228.437L228.448 315.675ZM230.328 307.764H234.176C235.673 307.764 236.888 307.404 237.822 306.695C238.756 305.986 239.229 304.816 239.229 303.206C239.229 301.744 238.835 300.675 238.047 299.988C237.259 299.302 236.112 298.964 234.626 298.964H230.328V307.764Z" fill="#31585C"/>
<path d="M252.17 315.889C250.257 315.889 248.67 315.484 247.399 314.662C246.127 313.852 245.16 312.727 244.507 311.309C243.854 309.891 243.528 308.282 243.528 306.492C243.528 304.703 243.854 303.071 244.507 301.653C245.16 300.236 246.116 299.11 247.399 298.3C248.67 297.479 250.268 297.073 252.17 297.073C254.072 297.073 255.67 297.479 256.93 298.3C258.202 299.11 259.158 300.236 259.811 301.653C260.464 303.083 260.79 304.692 260.79 306.492C260.79 308.293 260.464 309.88 259.811 311.309C259.158 312.738 258.202 313.852 256.93 314.662C255.659 315.484 254.072 315.889 252.17 315.889ZM252.17 314.201C253.701 314.201 254.95 313.852 255.94 313.165C256.93 312.468 257.662 311.534 258.134 310.363C258.607 309.193 258.855 307.899 258.855 306.504C258.855 305.446 258.719 304.444 258.449 303.51C258.179 302.576 257.763 301.755 257.212 301.035C256.66 300.326 255.962 299.763 255.118 299.369C254.275 298.975 253.295 298.773 252.17 298.773C250.662 298.773 249.402 299.122 248.412 299.831C247.41 300.539 246.667 301.473 246.172 302.644C245.677 303.814 245.43 305.108 245.43 306.515C245.43 307.921 245.677 309.182 246.161 310.352C246.645 311.522 247.388 312.456 248.4 313.165C249.402 313.863 250.662 314.223 252.17 314.223V314.201Z" fill="#31585C"/>
<path d="M263.94 315.675V297.276H265.82V313.987H273.314V297.276H275.194V313.987H282.666V297.276H284.567V315.675H263.952H263.94Z" fill="#31585C"/>
<path d="M288.698 315.675V297.276H300.907V298.964H290.577V305.705H299.872V307.426H290.577V313.987H300.907V315.675H288.698Z" fill="#31585C"/>
<path d="M303.889 315.675V297.276H315.547V298.964H305.757V315.675H303.878H303.889Z" fill="#31585C"/>
<path d="M325.124 315.889C323.211 315.889 321.624 315.484 320.353 314.662C319.081 313.852 318.113 312.727 317.461 311.309C316.808 309.891 316.482 308.282 316.482 306.492C316.482 304.703 316.808 303.071 317.461 301.653C318.113 300.236 319.07 299.11 320.353 298.3C321.624 297.479 323.222 297.073 325.124 297.073C327.026 297.073 328.624 297.479 329.884 298.3C331.156 299.11 332.112 300.236 332.765 301.653C333.418 303.083 333.744 304.692 333.744 306.492C333.744 308.293 333.418 309.88 332.765 311.309C332.112 312.738 331.156 313.852 329.884 314.662C328.613 315.484 327.026 315.889 325.124 315.889ZM325.124 314.201C326.654 314.201 327.904 313.852 328.894 313.165C329.884 312.468 330.616 311.534 331.088 310.363C331.561 309.193 331.808 307.899 331.808 306.504C331.808 305.446 331.673 304.444 331.403 303.51C331.133 302.576 330.717 301.755 330.165 301.035C329.614 300.326 328.916 299.763 328.072 299.369C327.228 298.975 326.249 298.773 325.124 298.773C323.616 298.773 322.356 299.122 321.366 299.831C320.364 300.539 319.621 301.473 319.126 302.644C318.631 303.814 318.383 305.108 318.383 306.515C318.383 307.921 318.631 309.182 319.115 310.352C319.599 311.522 320.342 312.456 321.354 313.165C322.356 313.863 323.616 314.223 325.124 314.223V314.201Z" fill="#31585C"/>
<path d="M345.03 315.697V313.897C345.829 313.897 346.515 313.807 347.089 313.615C347.663 313.424 348.158 313.12 348.575 312.715C348.991 312.31 349.374 311.781 349.723 311.14L342.566 297.265H344.783L350.792 309.137L355.687 297.265H357.712L353.47 307.235C353.279 307.707 353.031 308.27 352.738 308.934C352.446 309.598 352.12 310.296 351.748 311.005C351.388 311.714 350.994 312.378 350.589 312.985C350.184 313.593 349.768 314.077 349.351 314.448C348.777 314.921 348.136 315.247 347.438 315.427C346.741 315.607 345.93 315.697 345.03 315.697Z" fill="#31585C"/>
<path d="M360.076 315.675V297.276H366.377C367.717 297.276 368.853 297.49 369.81 297.929C370.766 298.368 371.498 299.032 372.004 299.921C372.51 300.81 372.769 301.946 372.769 303.319C372.769 304.692 372.465 305.806 371.869 306.729C371.273 307.651 370.451 308.338 369.427 308.788C368.392 309.238 367.21 309.463 365.871 309.463H361.944V315.686H360.064L360.076 315.675ZM361.955 307.764H365.804C367.3 307.764 368.516 307.404 369.45 306.695C370.384 305.986 370.856 304.816 370.856 303.206C370.856 301.744 370.462 300.675 369.675 299.988C368.887 299.302 367.739 298.964 366.254 298.964H361.955V307.764Z" fill="#31585C"/>
<path d="M383.786 315.889C381.873 315.889 380.286 315.484 379.015 314.662C377.743 313.852 376.775 312.727 376.123 311.309C375.47 309.891 375.144 308.282 375.144 306.492C375.144 304.703 375.47 303.071 376.123 301.653C376.775 300.236 377.732 299.11 379.015 298.3C380.286 297.479 381.884 297.073 383.786 297.073C385.688 297.073 387.286 297.479 388.546 298.3C389.818 299.11 390.774 300.236 391.427 301.653C392.08 303.083 392.406 304.692 392.406 306.492C392.406 308.293 392.08 309.88 391.427 311.309C390.774 312.738 389.818 313.852 388.546 314.662C387.275 315.484 385.688 315.889 383.786 315.889ZM383.786 314.201C385.317 314.201 386.566 313.852 387.556 313.165C388.546 312.468 389.278 311.534 389.75 310.363C390.223 309.193 390.47 307.899 390.47 306.504C390.47 305.446 390.335 304.444 390.065 303.51C389.795 302.576 389.379 301.755 388.828 301.035C388.276 300.326 387.578 299.763 386.734 299.369C385.891 298.975 384.911 298.773 383.786 298.773C382.278 298.773 381.018 299.122 380.028 299.831C379.026 300.539 378.283 301.473 377.788 302.644C377.293 303.814 377.046 305.108 377.046 306.515C377.046 307.921 377.293 309.182 377.777 310.352C378.261 311.522 379.004 312.456 380.016 313.165C381.018 313.863 382.278 314.223 383.786 314.223V314.201Z" fill="#31585C"/>
<path d="M393.295 315.675L398.291 306.38L393.317 297.265H395.399L399.957 305.806H403.085V297.265H404.964V305.806H408.138L412.695 297.265H414.698L409.724 306.38L414.743 315.675H412.56L408.217 307.505H404.964V315.675H403.085V307.505H399.833L395.489 315.675H393.306H393.295Z" fill="#31585C"/>
<path d="M416.33 315.675L423.307 297.276H425.884L432.861 315.675H430.802L429.294 311.613H419.897L418.389 315.675H416.33ZM420.516 309.925H428.641L424.579 299.02L420.516 309.925Z" fill="#31585C"/>
<path d="M435.077 315.675L439.084 308.281C437.812 308 436.788 307.437 436 306.56C435.212 305.693 434.819 304.5 434.819 302.992C434.819 301.946 434.976 301.068 435.302 300.348C435.629 299.628 436.079 299.043 436.664 298.581C437.249 298.12 437.958 297.794 438.768 297.58C439.579 297.377 440.49 297.265 441.48 297.265H448.165V315.663H446.285V308.608H440.952L437.182 315.663H435.077V315.675ZM441.919 306.931H446.297V298.964H441.503C440.501 298.964 439.635 299.099 438.915 299.369C438.195 299.639 437.643 300.055 437.272 300.629C436.9 301.203 436.709 301.968 436.709 302.925C436.709 303.96 436.957 304.782 437.441 305.356C437.924 305.941 438.566 306.346 439.354 306.582C440.141 306.819 440.997 306.931 441.919 306.931Z" fill="#31585C"/>
<path d="M0 274.635V197.011H62.432V215.309H21.5159V224.289H36.4824C45.8675 224.289 53.4071 226.416 59.1011 230.669C64.7952 234.923 67.6422 241.112 67.6422 249.248C67.6422 257.384 64.9415 263.461 59.5512 267.928C54.1498 272.407 46.8353 274.635 37.5965 274.635H0ZM21.5159 256.563H35.9311C39.1832 256.563 41.6926 255.865 43.4706 254.458C45.2486 253.052 46.1376 251.015 46.1376 248.359C46.1376 245.917 45.2373 243.993 43.4256 242.598C41.6139 241.191 39.1607 240.493 36.0548 240.493H21.5271V256.574L21.5159 256.563Z" fill="#05D975"/>
<path d="M76.8025 274.635V197.011H139.235V215.309H98.0933V227.068H135.352V244.038H98.0933V256.349H139.786V274.646H76.8025V274.635Z" fill="#05D975"/>
<path d="M150.723 274.635V197.011H183.987C193.89 197.011 201.745 199.431 207.551 204.281C213.358 209.12 216.261 215.872 216.261 224.514C216.261 233.156 213.189 240.257 207.056 245.141C200.923 250.025 192.866 252.455 182.885 252.455H172.239V274.635H150.723ZM172.239 235.598H182.446C186.294 235.598 189.299 234.675 191.482 232.83C193.665 230.984 194.757 228.464 194.757 225.29C194.757 222.117 193.665 219.428 191.482 217.695C189.299 215.962 186.249 215.084 182.333 215.084H172.239V235.598Z" fill="#05D975"/>
<path d="M223.103 274.635V197.011H244.394V240.707L274.451 197.011H294.527V274.635H273.236V230.939L243.179 274.635H223.103Z" fill="#05D975"/>
<path d="M343.916 276.188C332.675 276.188 323.199 272.362 315.469 264.71C307.738 257.058 303.878 247.425 303.878 235.823C303.878 224.221 307.771 214.859 315.581 207.105C323.379 199.341 333.113 195.458 344.805 195.458C358.624 195.458 369.495 200.927 377.405 211.865L361.662 224.064C356.857 218.077 351.163 215.084 344.58 215.084C339.179 215.084 334.745 217.075 331.268 221.07C327.791 225.065 326.058 229.983 326.058 235.823C326.058 241.663 327.791 246.671 331.268 250.632C334.745 254.593 339.179 256.562 344.58 256.562C348.35 256.562 351.568 255.763 354.224 254.177C356.891 252.59 359.513 250.238 362.101 247.132L378.294 258.667C374.232 264.215 369.495 268.513 364.104 271.585C358.703 274.657 351.974 276.188 343.916 276.188Z" fill="#04A65B"/>
<path d="M385.17 274.635V197.011H447.602V215.309H406.461V227.068H443.72V244.038H406.461V256.349H448.154V274.646H385.17V274.635Z" fill="#04A65B"/>
<path d="M459.092 274.635V197.011H480.383V240.707L510.44 197.011H530.515V274.635H509.224V230.939L479.167 274.635H459.092ZM495.462 192.015C490.139 192.015 485.762 190.541 482.318 187.581C478.886 184.622 476.759 180.447 475.938 175.045L487.697 172.941C489.318 177.375 491.917 179.591 495.462 179.591C499.006 179.591 501.707 177.375 503.339 172.941L515.098 175.045C514.288 180.447 512.161 184.622 508.718 187.581C505.286 190.541 500.863 192.015 495.462 192.015Z" fill="#04A65B"/>
<path d="M329.58 34.8433C324.55 32.0863 304.7 20.5406 277.366 4.65127C276.409 3.76228 272.336 0.12754 266 0.00375619C260.126 -0.120028 256.109 2.85078 255.017 3.71727C227.335 20.2368 208.328 31.276 201.858 34.3031C200.789 34.8095 197.244 36.3962 197.244 38.5568C197.244 39.7834 198.775 41.0212 201.858 42.7992C220.729 53.7484 239.657 64.6076 258.551 75.5231C262.94 78.0551 267.295 78.2238 271.739 75.6694C291.095 64.5176 310.473 53.4108 333.08 38.6243C334.644 37.6003 330.458 35.3271 329.592 34.8545L329.58 34.8433Z" fill="#05D975"/>
<path d="M343.939 60.7929C343.894 52.6795 342.15 51.7792 335.195 55.7853C316.425 66.6108 297.723 77.5487 278.896 88.2504C274.327 90.8499 272.223 94.3046 272.279 99.4922C272.392 110.667 272.313 121.852 272.313 133.026C272.313 133.026 272.336 133.026 272.347 133.026C272.347 144.381 272.313 155.724 272.358 167.078C272.381 173.256 273.675 174.1 278.896 171.107C299.017 159.539 319.07 147.847 339.201 136.279C342.566 134.343 344.018 131.687 344.007 127.861C343.95 105.501 344.051 83.1415 343.95 60.7929H343.939Z" fill="#025158"/>
<path d="M258.348 98.9406C258.393 94.1581 256.491 90.8497 252.294 88.464C233.197 77.5598 214.191 66.498 195.117 55.5375C188.5 51.734 186.598 52.7805 186.564 60.3764C186.486 82.725 186.587 105.062 186.497 127.411C186.486 131.631 188.016 134.467 191.752 136.605C211.895 148.105 231.937 159.786 252.035 171.365C256.975 174.212 258.269 173.402 258.291 167.528C258.336 156.185 258.303 144.842 258.303 133.499C258.303 121.987 258.224 110.464 258.325 98.9519L258.348 98.9406Z" fill="#04A65B"/>
<path d="M324.944 80.148C324.179 79.4728 322.918 79.6528 321.208 80.6431C316.526 83.3776 315.3 88.5428 314.985 90.9734C316.256 90.6808 317.46 90.5683 318.586 90.6808L319.621 84.9418C319.824 83.8052 320.69 82.6574 321.523 82.4436C322.367 82.196 322.884 82.9387 322.671 84.1091L321.343 91.4235C323.008 92.155 324.404 93.4378 325.439 95.1933L326.002 92.7402C326.283 91.5698 327.161 90.5008 327.993 90.3658C328.804 90.2195 329.265 91.0522 328.984 92.2225L327.419 98.9294C327.352 99.2219 327.228 99.5033 327.104 99.7733C327.352 101.09 327.498 102.519 327.498 104.083C327.498 105.974 327.273 107.932 326.902 109.89C328.725 106.818 330.694 102.181 330.694 96.4987C330.694 86.4272 327.183 86.8548 327.026 86.8886C326.305 87.0011 325.822 86.3597 325.957 85.3469C325.957 85.3131 326.429 81.4308 324.955 80.148H324.944ZM327.464 113.873C326.137 115.775 325.068 116.889 324.944 117.024C324.865 117.103 324.786 117.137 324.719 117.193C323.65 119.838 322.299 122.426 320.758 124.789C320.746 124.823 320.724 124.823 320.713 124.856C320.353 125.419 319.981 125.959 319.599 126.488C319.587 126.589 319.587 126.691 319.554 126.803C319.52 126.961 319.126 128.457 318.237 130.595C320.904 128.851 323.188 126.353 324.831 123.326C326.44 120.355 327.341 117.092 327.464 113.862V113.873ZM303.968 128.311C304.249 130.978 306.286 132.655 308.683 132.295C309.201 132.07 309.718 131.811 310.236 131.507C313.117 129.83 315.784 127.186 318.012 124.08C317.843 122.752 317.292 121.435 316.549 120.186L312.307 124.418C312.138 124.575 311.98 124.71 311.8 124.811C311.136 125.194 310.529 125.036 310.315 124.35C310.045 123.506 310.484 122.144 311.316 121.334L314.827 117.835C313.004 115.809 310.844 114.391 309.55 114.335C308.762 114.312 308.447 113.333 308.841 112.163C309.235 110.993 310.169 110.059 310.945 110.07C311.811 110.092 312.869 110.531 314.017 111.229L315.019 106.885C315.3 105.715 316.178 104.646 317.01 104.511C317.821 104.365 318.282 105.197 318.001 106.368L316.436 113.074C316.436 113.074 316.425 113.119 316.425 113.142C318.214 114.864 319.846 117.193 320.656 119.759C322.941 115.336 324.359 110.419 324.359 105.929C324.359 103.734 324.01 101.844 323.413 100.268C323.211 100.19 323.042 100.066 322.929 99.8183C321.782 97.3202 318.034 97.6352 315.457 99.6045C313.578 101.034 313.421 102.474 313.376 102.947C313.308 103.644 312.971 104.421 312.464 104.984C311.958 105.546 311.384 105.827 310.945 105.692C308.908 105.141 306.804 106.041 305.048 108.202C303.529 110.07 302.449 112.714 302.449 114.605C302.438 118.071 304.171 119.309 305.814 118.735C306.477 118.51 306.973 118.847 307.063 119.59C307.175 120.333 306.86 121.312 306.275 122.054C304.553 124.238 303.788 126.342 303.968 128.334V128.311ZM287.764 116.754C286.042 122.426 286.605 127.681 289.125 130.393C290.431 128.615 291.837 127.186 293.086 126.184C293.019 125.543 292.996 124.868 292.996 124.192C292.996 112.456 300.727 98.4567 310.236 92.909C310.799 92.5826 311.361 92.29 311.901 92.0312C312.07 90.7484 312.408 89.2742 312.903 87.7213C308.728 85.5607 303.214 88.4527 299.647 92.2675C296.89 95.2046 295.146 98.693 294.662 102.069C295.112 101.731 295.551 101.394 296.023 101.124C296.89 100.561 297.61 100.989 297.633 102.035C297.666 103.093 296.969 104.387 296.113 104.905C292.377 107.234 289.339 111.533 287.764 116.743V116.754ZM302.078 137.584C300.176 137.437 298.499 136.74 297.126 135.536L291.826 140.262C291.68 140.386 291.556 140.476 291.432 140.543C290.723 140.96 290.104 140.723 289.913 139.958C289.71 139.035 290.206 137.696 291.061 136.953L295.213 133.262C294.572 132.205 294.054 131.001 293.694 129.616C291.871 131.079 288.236 134.692 288.236 140.476C288.236 142.603 288.686 143.84 289.62 144.268C291.365 145.044 294.29 142.76 294.302 142.749C295.101 142.107 295.855 142.265 296.068 143.086C296.113 143.199 297.43 146.766 305.6 142.006C310.225 139.305 313.049 135.232 314.692 132.013C313.263 133.33 311.778 134.467 310.236 135.367C309.831 135.603 309.437 135.794 309.043 135.986C308.919 136.098 308.796 136.211 308.672 136.278C308.548 136.346 308.402 136.413 308.267 136.436C308.154 136.458 308.042 136.47 307.94 136.492C307.49 136.683 307.029 136.852 306.59 136.987C306.432 137.257 306.241 137.494 306.039 137.707L301.335 142.377C301.166 142.535 301.008 142.67 300.828 142.771C300.164 143.154 299.557 142.996 299.343 142.31C299.073 141.466 299.512 140.104 300.345 139.294L302.066 137.572L302.078 137.584ZM302.584 122.91C300.738 122.313 299.287 120.22 299.309 116.405C299.309 113.086 301.031 108.742 303.585 105.614C305.87 102.812 308.492 101.281 311.012 101.247C311.811 99.2332 313.207 97.3764 315.007 96.0261C315.559 95.6097 316.133 95.2496 316.729 94.9458C314.782 94.8445 312.588 95.4071 310.236 96.78C302.46 101.315 296.125 112.782 296.125 122.381C296.125 127.838 298.195 131.496 301.402 132.824C301.132 132.148 300.93 131.394 300.851 130.573C300.603 128.187 301.211 125.52 302.561 122.921L302.584 122.91ZM285.108 142.31C285.108 139.339 285.794 136.683 286.83 134.354C283.442 131.023 282.677 124.192 284.917 116.81C286.278 112.309 288.596 108.213 291.421 105.085C291.646 99.7508 294.223 93.933 298.488 89.3642C303.034 84.4917 309.617 81.0595 314.76 83.5239C316.223 80.9357 318.304 78.4825 321.219 76.7833C323.897 75.2191 325.957 75.0503 327.352 76.2769C329.017 77.7398 329.197 80.8344 329.152 82.6912C330.874 83.0738 333.822 85.1331 333.822 94.6757C333.822 100.268 332.281 105.062 330.469 108.787C331.032 114.02 329.861 119.646 327.082 124.733C324.651 129.178 321.309 132.711 317.494 134.939C316.853 135.311 316.178 135.648 315.502 135.941C313.342 139.44 310.168 143.199 305.611 145.855C297.88 150.367 294.808 148.522 293.683 147.036C292.175 147.97 289.575 149.276 287.606 148.387C285.963 147.633 285.119 145.573 285.119 142.299L285.108 142.31Z" fill="#EDEAE5"/>
<path d="M245.43 147.543C245.43 152.978 242.099 155.127 237.676 152.539C229.608 147.835 218.591 134.951 211.468 121.953C207.27 114.279 205.076 107.741 205.11 103.014C205.121 101.383 205.425 99.8972 205.931 98.5243L198.223 89.2743C197.818 88.7904 197.525 88.1828 197.413 87.5864C197.289 87.0012 197.368 86.4723 197.615 86.1572L200.204 82.9051L196.344 76.4796C196.017 75.9507 195.815 75.3318 195.815 74.8029C195.804 74.2627 195.95 73.8576 196.265 73.655L200.912 70.6505C201.205 70.4592 201.621 70.4817 202.06 70.763C202.477 71.0218 202.882 71.4945 203.174 72.0684L206.55 78.809L210.444 77.8975C210.815 77.8074 211.265 77.9762 211.704 78.3588C212.143 78.7414 212.492 79.3153 212.694 79.9343L216.554 91.6825C217.905 91.8175 219.266 92.2789 220.583 93.0216L220.695 93.0891C224.544 95.3397 228.786 100.505 232.995 108.067C240.186 121.03 245.418 137.64 245.418 147.543H245.43ZM237.676 148.736C240.422 150.333 242.324 149.084 242.324 145.731C242.324 136.886 237.372 121.312 230.812 109.496C227.245 103.082 223.666 98.6369 220.707 96.9039L220.628 96.8589C218.051 95.396 215.046 95.5085 212.413 97.2077C209.78 98.9294 208.238 101.709 208.216 104.871C208.182 108.517 210.117 114.087 213.673 120.558C220.166 132.43 230.486 144.538 237.676 148.736ZM213.797 91.7837L210.725 82.4212L208.632 82.8938L213.178 91.93C213.381 91.8738 213.595 91.8288 213.797 91.7725V91.7837ZM210.77 92.9541L201.948 75.3993L199.641 76.8847L209.724 93.618C209.892 93.4942 210.05 93.3704 210.23 93.2466C210.399 93.1341 210.59 93.0328 210.77 92.9541ZM207.338 95.9699C207.473 95.7898 207.619 95.621 207.754 95.4297L202.555 86.8099L201.16 88.5654L207.327 95.9586L207.338 95.9699Z" fill="#EDEAE5"/>
<path d="M237.676 143.019C238.542 143.526 239.229 144.763 239.229 145.832C239.229 146.902 238.542 147.34 237.676 146.834C230.958 142.918 220.898 131.068 214.776 119.872C211.569 114.009 209.757 108.9 209.768 105.794C209.802 103.127 211.164 100.719 213.516 99.1997C214.123 98.8059 215.102 99.3798 215.699 100.471C216.295 101.563 216.306 102.789 215.699 103.172C213.988 104.275 212.874 106.019 212.863 107.628C212.863 108.202 213.021 109.091 213.358 110.262L216.43 108.281C217.038 107.887 218.017 108.461 218.613 109.553C219.21 110.644 219.221 111.848 218.613 112.242L215.507 114.245C215.339 114.369 215.136 114.391 214.922 114.335C215.485 115.573 216.149 116.935 216.97 118.442C218.107 120.513 219.401 122.629 220.785 124.688C220.864 124.542 220.943 124.395 221.078 124.328L224.184 122.325C224.791 121.931 225.77 122.505 226.367 123.596C226.963 124.688 226.974 125.892 226.367 126.286L223.317 128.278C226.074 132.025 229.056 135.513 231.836 138.237L233.197 135.693C233.58 134.985 234.514 135.153 235.279 136.054C236.056 136.988 236.359 138.304 235.977 139.013L234.919 141.005C235.898 141.804 236.821 142.479 237.676 142.974V143.019Z" fill="#EDEAE5"/>
<path d="M235.673 123.338C236.281 124.429 236.281 125.633 235.673 126.027L234.121 127.029C233.828 127.242 233.423 127.197 233.018 126.961C232.613 126.725 232.23 126.308 231.937 125.757C231.33 124.665 231.33 123.461 231.937 123.067L233.49 122.066C234.098 121.672 235.077 122.246 235.673 123.338Z" fill="#EDEAE5"/>
<path d="M229.472 112.096C230.08 113.187 230.08 114.391 229.472 114.785L226.366 116.788C226.074 117.002 225.669 116.957 225.264 116.721C224.858 116.484 224.476 116.068 224.183 115.517C223.576 114.425 223.576 113.221 224.183 112.827L227.289 110.824C227.897 110.43 228.876 111.004 229.472 112.096Z" fill="#EDEAE5"/>
<path d="M223.261 100.854C223.869 101.945 223.869 103.149 223.261 103.543L221.708 104.545C221.415 104.758 221.01 104.713 220.605 104.477C220.2 104.241 219.817 103.824 219.525 103.273C218.917 102.182 218.917 100.977 219.525 100.584L221.078 99.5821C221.685 99.1882 222.664 99.7621 223.261 100.854Z" fill="#EDEAE5"/>
<path d="M282.396 26.561C288.788 27.6975 305.746 30.6796 307.952 39.4457C308.762 42.5291 306.759 44.8922 303.754 46.6927C298.735 49.686 290.881 51.0476 288.608 51.3852C286.469 51.7116 284.073 51.9254 281.529 52.0604H281.518C279.481 52.6568 261.443 57.8332 250.966 55.6501C250.381 55.5264 249.874 55.29 249.571 54.975C249.233 54.6711 249.143 54.311 249.301 54.0072C249.965 52.6006 250.809 51.2727 251.821 50.0349C240.793 48.1331 231.262 45.2298 224.791 41.7526C219.66 38.9956 218.917 34.9895 223.103 32.4463L223.283 32.3338C228.527 29.2054 236.067 26.8873 245.114 25.5707C244.045 24.5467 243.01 23.4776 242.031 22.3073C241.739 21.9922 241.705 21.6434 241.885 21.362C242.076 21.0582 242.47 20.8331 243.01 20.7319C253.284 18.7851 272.099 24.7267 273.461 25.1656C274.204 25.2443 274.969 25.3344 275.734 25.4469C277.445 25.672 279.132 25.9533 280.73 26.2684C281.181 26.3471 281.754 26.4597 282.396 26.561ZM301.02 35.5972C296.338 31.5236 286.83 29.8356 281.676 28.9354C280.967 28.8116 280.359 28.7103 279.875 28.609C278.412 28.3277 276.882 28.0801 275.306 27.8663C274.462 27.7425 273.573 27.63 272.707 27.5512C272.324 27.5062 271.998 27.4049 271.717 27.2812C267.08 25.807 254.691 22.4761 247.14 22.8699C254.837 31.186 264.582 34.5619 278.514 37.4764C278.66 37.5102 278.761 37.5665 278.907 37.6115C285.288 36.4862 292.704 35.8335 301.02 35.5972ZM303.574 39.4345C303.45 38.9393 303.259 38.4892 303.045 38.0503C276.387 38.6468 259.991 43.8907 254.286 53.6471C261.848 54.1647 273.844 51.3065 278.637 49.9223C278.93 49.7648 279.29 49.6523 279.751 49.6297C282.362 49.5172 284.759 49.2922 286.886 48.9771C288.776 48.6845 305.251 46.0063 303.574 39.4232V39.4345ZM273.135 38.8155C270.029 38.0841 267.058 37.2964 264.29 36.3961L264.965 40.0309C265.01 40.3685 264.83 40.6723 264.47 40.8861C264.11 41.0999 263.581 41.2237 262.984 41.2125C261.769 41.1787 260.666 40.5823 260.542 39.8958L259.597 34.6857C257.74 33.9205 255.94 33.0877 254.241 32.1537L255.625 39.7496C255.67 40.0871 255.49 40.391 255.13 40.6048C254.77 40.8186 254.241 40.9424 253.644 40.9311C252.429 40.8974 251.326 40.301 251.202 39.6145L249.604 30.8259C249.537 30.3983 249.863 30.0494 250.437 29.8469C249.503 29.2167 248.592 28.5527 247.714 27.8438C247.703 27.8438 247.691 27.8551 247.658 27.8551C238.79 29.0479 231.566 31.321 226.547 34.2806C223.846 35.9123 224.285 38.2979 227.582 40.0759C233.715 43.373 242.999 46.13 253.836 47.8968C254.286 47.4692 254.77 47.0641 255.276 46.6702C243.753 45.016 235.527 42.7879 230.193 39.8958C229.248 39.3895 229.146 38.6355 229.9 38.1404C230.666 37.679 232.061 37.7353 233.017 38.2416C238.003 40.9536 246.251 43.0242 258.179 44.5996C262.095 42.1802 267.114 40.2672 273.135 38.8043V38.8155Z" fill="#EDEAE5"/>
<path d="M295.742 41.7077C296.597 41.2914 297.993 41.3926 298.882 41.9328C299.715 42.4504 299.793 43.1819 299.062 43.6207L298.949 43.6883C294.898 45.6801 288.135 47.2217 277.681 48.5158C273.259 50.4401 269.084 50.9352 262.276 51.6554C261.105 51.768 259.856 51.3291 259.462 50.6427C259.069 49.9562 259.687 49.3148 260.846 49.191C267.452 48.5046 271.076 48.0545 274.969 46.3327C275.183 46.2202 275.453 46.1639 275.734 46.1302C285.772 44.9148 292.119 43.497 295.742 41.7077Z" fill="#EDEAE5"/>
<path d="M278.547 33.0544C279.763 33.0881 280.865 33.6845 280.989 34.371C281.034 34.7086 280.854 35.0124 280.494 35.2262C280.134 35.44 279.605 35.5638 279.009 35.5525C275.16 35.4288 266.731 33.2457 261.555 31.3551C260.475 30.95 260.036 30.1736 260.587 29.6109C261.127 29.0595 262.478 28.9357 263.569 29.3296C268.813 31.2651 276.207 32.9981 278.547 33.0544Z" fill="#EDEAE5"/>
<path d="M242.549 31.1407C243.764 31.1744 244.867 31.7709 244.991 32.4573L245.947 37.735C245.992 38.0726 245.812 38.3764 245.452 38.5902C245.092 38.804 244.563 38.9278 243.967 38.9166C242.751 38.8828 241.648 38.2864 241.525 37.6L240.568 32.3223C240.444 31.6358 241.333 31.1069 242.549 31.1407Z" fill="#EDEAE5"/>
<path d="M235.245 33.5599C236.461 33.5936 237.563 34.1901 237.687 34.8765L238.002 36.632C238.047 36.9696 237.867 37.2734 237.507 37.4872C237.147 37.701 236.618 37.8248 236.022 37.8135C234.806 37.7798 233.704 37.1834 233.58 36.4969L233.265 34.7415C233.141 34.055 234.03 33.5261 235.245 33.5599Z" fill="#EDEAE5"/>
</svg>
