<svg width="56" height="61" viewBox="0 0 56 61" fill="none" xmlns="http://www.w3.org/2000/svg">
<path d="M50.7116 12.2568C48.964 11.2989 42.0673 7.28758 32.5707 1.76712C32.2384 1.45826 30.8231 0.195434 28.622 0.152428C26.5811 0.109422 25.1854 1.14157 24.8061 1.44262C15.1883 7.18202 8.58491 11.0174 6.33685 12.0691C5.96544 12.245 4.73389 12.7963 4.73389 13.547C4.73389 13.9731 5.2656 14.4032 6.33685 15.0209C12.8934 18.825 19.4694 22.5978 26.0338 26.3902C27.5585 27.2699 29.0716 27.3285 30.6159 26.4411C37.3405 22.5666 44.073 18.7077 51.9275 13.5704C52.471 13.2146 51.0166 12.4249 50.7155 12.2607L50.7116 12.2568Z" fill="#05D975"/>
<path d="M55.7004 21.2725C55.6848 18.4536 55.0787 18.1409 52.6626 19.5327C46.1412 23.2938 39.6434 27.094 33.1025 30.8121C31.5152 31.7152 30.7841 32.9155 30.8036 34.7179C30.8427 38.6002 30.8153 42.4864 30.8153 46.3687C30.8153 46.3687 30.8232 46.3687 30.8271 46.3687C30.8271 50.3135 30.8153 54.2545 30.831 58.1993C30.8388 60.3457 31.2884 60.639 33.1025 59.599C40.093 55.5799 47.06 51.5177 54.0544 47.4986C55.2234 46.8261 55.7278 45.9034 55.7238 44.5741C55.7043 36.8056 55.7395 29.0371 55.7043 21.2725H55.7004Z" fill="#025158"/>
<path d="M24.9633 34.5261C24.9789 32.8645 24.3182 31.7151 22.8599 30.8862C16.2252 27.0978 9.62172 23.2546 2.99483 19.4465C0.695944 18.1251 0.0352075 18.4887 0.0234785 21.1277C-0.00388923 28.8923 0.0312988 36.653 2.13921e-05 44.4176C-0.00388828 45.8837 0.527826 46.869 1.82584 47.6118C8.82415 51.6075 15.7873 55.6657 22.7699 59.6888C24.4863 60.6779 24.9359 60.3964 24.9437 58.3556C24.9594 54.4146 24.9476 50.4737 24.9476 46.5327C24.9476 42.5331 24.9203 38.5296 24.9554 34.5301L24.9633 34.5261Z" fill="#04A65B"/>
<path d="M49.1007 27.997C48.8348 27.7624 48.397 27.8249 47.8027 28.169C46.1763 29.119 45.7501 30.9136 45.6406 31.7581C46.0824 31.6564 46.5008 31.6173 46.8917 31.6564L47.2514 29.6625C47.3218 29.2676 47.6228 28.8688 47.9122 28.7945C48.2054 28.7085 48.3852 28.9666 48.3109 29.3732L47.8496 31.9145C48.4282 32.1686 48.913 32.6143 49.2727 33.2242L49.4682 32.3719C49.5659 31.9653 49.8709 31.5939 50.1602 31.547C50.4417 31.4961 50.602 31.7854 50.5043 32.192L49.9608 34.5222C49.9374 34.6239 49.8944 34.7216 49.8513 34.8154C49.9374 35.2729 49.9882 35.7694 49.9882 36.3128C49.9882 36.9697 49.91 37.6499 49.781 38.3302C50.4143 37.2629 51.0985 35.6521 51.0985 33.6777C51.0985 30.1786 49.8787 30.3271 49.824 30.3389C49.5738 30.378 49.4056 30.1551 49.4526 29.8032C49.4526 29.7915 49.6168 28.4427 49.1046 27.997H49.1007ZM49.9765 39.7143C49.5151 40.375 49.1437 40.762 49.1007 40.809C49.0733 40.8363 49.046 40.8481 49.0225 40.8676C48.6511 41.7864 48.1819 42.6856 47.6463 43.5066C47.6424 43.5184 47.6346 43.5184 47.6307 43.5301C47.5055 43.7256 47.3765 43.9132 47.2436 44.097C47.2397 44.1322 47.2397 44.1674 47.228 44.2065C47.2162 44.2612 47.0794 44.7812 46.7705 45.524C47.6971 44.918 48.4908 44.0501 49.0616 42.9984C49.6207 41.9662 49.9335 40.8324 49.9765 39.7103V39.7143ZM41.8131 44.7304C41.9108 45.657 42.6185 46.2395 43.4512 46.1144C43.6311 46.0362 43.8109 45.9463 43.9908 45.8407C44.9916 45.2582 45.9182 44.3394 46.6923 43.2603C46.6337 42.799 46.4421 42.3416 46.1841 41.9076L44.7101 43.3776C44.6515 43.4324 44.5967 43.4793 44.5342 43.5145C44.3035 43.6474 44.0924 43.5926 44.0181 43.3542C43.9243 43.0609 44.0768 42.5879 44.3661 42.3064L45.5859 41.0905C44.9525 40.3867 44.2019 39.8941 43.7523 39.8745C43.4786 39.8667 43.3691 39.5266 43.506 39.12C43.6428 38.7134 43.9673 38.3889 44.2371 38.3928C44.5381 38.4006 44.9056 38.5531 45.3044 38.7955L45.6524 37.2864C45.7501 36.8797 46.0551 36.5083 46.3444 36.4614C46.6259 36.4106 46.7862 36.6999 46.6884 37.1065L46.145 39.4367C46.145 39.4367 46.1411 39.4523 46.1411 39.4601C46.7627 40.0583 47.3296 40.8676 47.6111 41.759C48.4048 40.2225 48.8974 38.514 48.8974 36.954C48.8974 36.1916 48.7762 35.5348 48.569 34.9875C48.4986 34.9601 48.44 34.9171 48.4009 34.8311C48.0021 33.9631 46.7002 34.0726 45.8048 34.7568C45.1519 35.2533 45.0972 35.7538 45.0816 35.918C45.0581 36.1604 44.9408 36.4301 44.7649 36.6256C44.5889 36.8211 44.3895 36.9188 44.2371 36.8719C43.5294 36.6803 42.7983 36.9931 42.1884 37.7438C41.6606 38.3928 41.2853 39.3116 41.2853 39.9684C41.2813 41.1726 41.8834 41.6026 42.4543 41.4032C42.6849 41.325 42.8569 41.4423 42.8882 41.7004C42.9273 41.9584 42.8179 42.2985 42.6146 42.5566C42.0164 43.3151 41.7505 44.0462 41.8131 44.7382V44.7304ZM36.1831 40.7151C35.585 42.6856 35.7804 44.5114 36.6562 45.4537C37.1097 44.8359 37.5984 44.3394 38.0324 43.9914C38.009 43.7686 38.0011 43.534 38.0011 43.2994C38.0011 39.2216 40.6871 34.358 43.9908 32.4305C44.1862 32.3172 44.3817 32.2155 44.5694 32.1256C44.628 31.6799 44.7453 31.1677 44.9173 30.6282C43.4669 29.8775 41.5511 30.8823 40.3118 32.2077C39.3539 33.2281 38.7479 34.4401 38.5798 35.613C38.7362 35.4957 38.8886 35.3784 39.0528 35.2846C39.3539 35.0891 39.6041 35.2377 39.6119 35.6013C39.6236 35.9688 39.3813 36.4184 39.0841 36.5982C37.7861 37.4075 36.7305 38.901 36.1831 40.7112V40.7151ZM41.1562 47.9519C40.4955 47.9011 39.913 47.6587 39.436 47.2404L37.5945 48.8824C37.5437 48.9254 37.5007 48.9567 37.4577 48.9802C37.2114 49.1248 36.9964 49.0427 36.9299 48.7769C36.8595 48.4563 37.0315 47.991 37.3287 47.733L38.7713 46.4506C38.5485 46.0831 38.3686 45.6648 38.2435 45.1839C37.6102 45.6921 36.3474 46.9471 36.3474 48.9567C36.3474 49.6956 36.5037 50.1257 36.8282 50.2743C37.4342 50.544 38.4508 49.7504 38.4547 49.7465C38.7322 49.5236 38.9942 49.5784 39.0685 49.8638C39.0841 49.9029 39.5416 51.1422 42.38 49.4884C43.9868 48.5501 44.9682 47.1348 45.539 46.0166C45.0425 46.4741 44.5264 46.869 43.9908 47.1817C43.85 47.2638 43.7132 47.3303 43.5763 47.3968C43.5333 47.4359 43.4903 47.4749 43.4473 47.4984C43.4043 47.5219 43.3535 47.5453 43.3066 47.5531C43.2675 47.561 43.2284 47.5649 43.1932 47.5727C43.0368 47.6392 42.8765 47.6978 42.724 47.7447C42.6693 47.8386 42.6028 47.9207 42.5324 47.9949L40.8982 49.6174C40.8396 49.6722 40.7848 49.7191 40.7223 49.7543C40.4916 49.8872 40.2805 49.8325 40.2062 49.594C40.1124 49.3008 40.2648 48.8277 40.5542 48.5462L41.1523 47.948L41.1562 47.9519ZM41.3322 42.8537C40.691 42.6465 40.1866 41.9193 40.1945 40.5939C40.1945 39.4406 40.7926 37.9314 41.6801 36.8446C42.4738 35.871 43.3848 35.3393 44.2605 35.3276C44.5381 34.6278 45.0229 33.9827 45.6485 33.5135C45.84 33.3689 46.0394 33.2438 46.2466 33.1382C45.5703 33.103 44.8079 33.2985 43.9908 33.7755C41.2892 35.3511 39.088 39.335 39.088 42.67C39.088 44.5662 39.8074 45.8368 40.9217 46.2981C40.8278 46.0636 40.7575 45.8016 40.7301 45.5162C40.6441 44.6874 40.8552 43.7608 41.3244 42.8576L41.3322 42.8537ZM35.2605 49.594C35.2605 48.5618 35.499 47.6392 35.8586 46.8299C34.6818 45.6726 34.416 43.2994 35.194 40.7347C35.6671 39.1708 36.4725 37.7477 37.4538 36.6608C37.532 34.8076 38.4273 32.7863 39.9091 31.199C41.4886 29.5061 43.7757 28.3137 45.5624 29.1699C46.0707 28.2706 46.794 27.4183 47.8066 26.828C48.7371 26.2845 49.4526 26.2259 49.9374 26.652C50.516 27.1603 50.5785 28.2355 50.5629 28.8806C51.1611 29.0135 52.1854 29.729 52.1854 33.0444C52.1854 34.9875 51.6498 36.653 51.0203 37.9471C51.2158 39.7651 50.8092 41.7199 49.8435 43.4871C48.999 45.0314 47.8379 46.259 46.5125 47.0332C46.2896 47.1622 46.0551 47.2795 45.8205 47.3811C45.0698 48.597 43.9673 49.9029 42.3839 50.8255C39.6979 52.3933 38.6306 51.7521 38.2396 51.2361C37.7157 51.5606 36.8126 52.0141 36.1284 51.7052C35.5576 51.4433 35.2644 50.7278 35.2644 49.5901L35.2605 49.594Z" fill="#EDEAE5"/>
<path d="M21.475 51.4121C21.475 53.3005 20.3177 54.0472 18.7812 53.148C15.978 51.5138 12.1504 47.0372 9.67562 42.5215C8.21732 39.8551 7.45493 37.5836 7.46666 35.9416C7.47057 35.3747 7.57613 34.8586 7.75207 34.3816L5.07394 31.1678C4.93319 30.9997 4.83154 30.7886 4.79244 30.5814C4.74944 30.3781 4.77681 30.1943 4.86282 30.0849L5.76204 28.955L4.42102 26.7226C4.30764 26.5388 4.23727 26.3238 4.23727 26.14C4.23336 25.9523 4.28419 25.8116 4.39366 25.7412L6.00835 24.6973C6.11 24.6309 6.25466 24.6387 6.40714 24.7364C6.5518 24.8264 6.69255 24.9906 6.7942 25.19L7.9671 27.5319L9.31984 27.2152C9.44886 27.1839 9.60525 27.2425 9.75773 27.3755C9.9102 27.5084 10.0314 27.7078 10.1018 27.9228L11.4428 32.0045C11.912 32.0514 12.385 32.2117 12.8425 32.4698L12.8816 32.4932C14.2187 33.2752 15.6926 35.0697 17.1548 37.697C19.6531 42.2009 21.4711 47.9716 21.4711 51.4121H21.475ZM18.7812 51.8265C19.7352 52.3817 20.3959 51.9477 20.3959 50.7827C20.3959 47.7097 18.6757 42.2987 16.3963 38.1935C15.157 35.965 13.9137 34.4207 12.8855 33.8186L12.8581 33.803C11.9628 33.2947 10.9189 33.3338 10.004 33.9242C9.08917 34.5223 8.55355 35.488 8.54573 36.5867C8.534 37.8534 9.20646 39.7887 10.4419 42.0367C12.6978 46.1614 16.283 50.3682 18.7812 51.8265ZM10.4849 32.0397L9.41758 28.7869L8.69038 28.9511L10.2699 32.0905C10.3403 32.071 10.4146 32.0553 10.4849 32.0358V32.0397ZM9.43322 32.4463L6.36804 26.3472L5.56656 26.8633L9.06962 32.677C9.12827 32.634 9.18301 32.591 9.24556 32.548C9.30421 32.5089 9.37067 32.4737 9.43322 32.4463ZM8.24077 33.4941C8.28769 33.4315 8.33851 33.3729 8.38543 33.3064L6.57916 30.3116L6.09436 30.9215L8.23687 33.4902L8.24077 33.4941Z" fill="#EDEAE5"/>
<path d="M18.7812 49.8404C19.0823 50.0164 19.3207 50.4464 19.3207 50.8179C19.3207 51.1893 19.0823 51.3418 18.7812 51.1658C16.4471 49.8053 12.9519 45.6884 10.825 41.7982C9.71077 39.7613 9.08131 37.9863 9.08522 36.9073C9.09695 35.9807 9.57002 35.144 10.3871 34.6162C10.5983 34.4793 10.9384 34.6787 11.1456 35.058C11.3528 35.4372 11.3567 35.8634 11.1456 35.9963C10.5513 36.3794 10.1643 36.9854 10.1604 37.5445C10.1604 37.7439 10.2151 38.0528 10.3324 38.4594L11.3997 37.7713C11.6109 37.6345 11.951 37.8338 12.1582 38.2131C12.3654 38.5923 12.3693 39.0107 12.1582 39.1475L11.0792 39.8434C11.0205 39.8864 10.9501 39.8942 10.8759 39.8747C11.0713 40.3048 11.302 40.7778 11.5874 41.3017C11.9823 42.0211 12.4319 42.7561 12.9128 43.4716C12.9402 43.4208 12.9675 43.3699 13.0144 43.3465L14.0935 42.6506C14.3046 42.5137 14.6448 42.7131 14.852 43.0924C15.0592 43.4716 15.0631 43.8899 14.852 44.0268L13.7925 44.7188C14.7503 46.0207 15.7864 47.2327 16.7521 48.1788L17.2252 47.2952C17.3581 47.0489 17.6826 47.1076 17.9484 47.4204C18.2182 47.7449 18.3238 48.2023 18.1908 48.4486L17.8233 49.1406C18.1635 49.4182 18.4841 49.6528 18.7812 49.8248V49.8404Z" fill="#EDEAE5"/>
<path d="M18.0853 43.0023C18.2964 43.3816 18.2964 43.7999 18.0853 43.9367L17.5457 44.2847C17.4441 44.359 17.3033 44.3433 17.1626 44.2612C17.0218 44.1791 16.8889 44.0345 16.7872 43.8429C16.5761 43.4637 16.5761 43.0453 16.7872 42.9085L17.3268 42.5605C17.5379 42.4237 17.878 42.6231 18.0853 43.0023Z" fill="#EDEAE5"/>
<path d="M15.9312 39.0966C16.1423 39.4758 16.1423 39.8941 15.9312 40.031L14.8521 40.7269C14.7505 40.8012 14.6097 40.7855 14.469 40.7034C14.3282 40.6213 14.1953 40.4767 14.0936 40.2851C13.8825 39.9059 13.8825 39.4875 14.0936 39.3507L15.1727 38.6548C15.3838 38.5179 15.724 38.7173 15.9312 39.0966Z" fill="#EDEAE5"/>
<path d="M13.773 35.1908C13.9841 35.57 13.9841 35.9884 13.773 36.1252L13.2335 36.4732C13.1318 36.5474 12.9911 36.5318 12.8503 36.4497C12.7096 36.3676 12.5766 36.2229 12.475 36.0314C12.2639 35.6521 12.2639 35.2338 12.475 35.097L13.0145 34.749C13.2257 34.6122 13.5658 34.8116 13.773 35.1908Z" fill="#EDEAE5"/>
<path d="M34.3182 9.37916C36.5389 9.77404 42.4308 10.8101 43.1971 13.8557C43.4786 14.927 42.7827 15.748 41.7388 16.3736C39.9951 17.4135 37.2661 17.8866 36.4764 18.0039C35.7335 18.1173 34.9008 18.1916 34.0172 18.2385H34.0133C33.3056 18.4457 27.0384 20.2441 23.3985 19.4857C23.1952 19.4427 23.0193 19.3605 22.9137 19.2511C22.7964 19.1455 22.7652 19.0204 22.8199 18.9148C23.0506 18.4261 23.3438 17.9648 23.6957 17.5347C19.8642 16.874 16.5527 15.8653 14.3046 14.6572C12.5218 13.6993 12.2638 12.3075 13.7182 11.4239L13.7807 11.3848C15.6026 10.2979 18.2221 9.49254 21.3655 9.03511C20.9941 8.67933 20.6344 8.30791 20.2943 7.90131C20.1926 7.79184 20.1809 7.67064 20.2434 7.57289C20.3099 7.46733 20.4467 7.38914 20.6344 7.35395C24.2039 6.67758 30.7409 8.74189 31.214 8.89436C31.472 8.92173 31.7379 8.95301 32.0037 8.9921C32.598 9.0703 33.1844 9.16804 33.7396 9.27751C33.896 9.30488 34.0954 9.34398 34.3182 9.37916ZM40.7887 12.5186C39.1623 11.1033 35.8587 10.5169 34.068 10.2041C33.8217 10.1611 33.6106 10.1259 33.4425 10.0907C32.9342 9.99298 32.4025 9.90697 31.8551 9.83268C31.5619 9.78968 31.2531 9.75058 30.952 9.72321C30.8191 9.70757 30.7057 9.67239 30.608 9.62938C28.9972 9.11721 24.6926 7.95995 22.0692 8.09679C24.7435 10.986 28.1292 12.1589 32.9694 13.1715C33.0202 13.1833 33.0554 13.2028 33.1062 13.2185C35.323 12.8275 37.8995 12.6007 40.7887 12.5186ZM41.6762 13.8518C41.6332 13.6798 41.5668 13.5234 41.4925 13.3709C32.2305 13.5781 26.5341 15.4001 24.5519 18.7897C27.1792 18.9696 31.3469 17.9765 33.0124 17.4956C33.1141 17.4409 33.2392 17.4018 33.3995 17.394C34.3065 17.3549 35.1393 17.2767 35.8782 17.1672C36.535 17.0656 42.2588 16.1351 41.6762 13.8479V13.8518ZM31.1006 13.6368C30.0215 13.3827 28.9894 13.109 28.0276 12.7962L28.2622 14.059C28.2778 14.1763 28.2152 14.2819 28.0901 14.3562C27.965 14.4305 27.7813 14.4735 27.5741 14.4696C27.1518 14.4578 26.7687 14.2506 26.7257 14.0121L26.3972 12.2019C25.7522 11.9361 25.1266 11.6468 24.5362 11.3223L25.0171 13.9613C25.0328 14.0786 24.9702 14.1841 24.8451 14.2584C24.72 14.3327 24.5362 14.3757 24.329 14.3718C23.9068 14.3601 23.5236 14.1529 23.4806 13.9144L22.9255 10.8609C22.902 10.7124 23.0154 10.5912 23.2148 10.5208C22.8903 10.3018 22.5736 10.0712 22.2686 9.82486C22.2647 9.82486 22.2608 9.82877 22.2491 9.82877C19.1683 10.2432 16.6583 11.033 14.9145 12.0612C13.9762 12.6281 14.1287 13.4569 15.2742 14.0747C17.405 15.2202 20.6305 16.1781 24.3955 16.7919C24.5519 16.6433 24.72 16.5026 24.8959 16.3657C20.8924 15.791 18.0345 15.0169 16.1813 14.0121C15.8529 13.8362 15.8177 13.5742 16.0796 13.4022C16.3455 13.2419 16.8303 13.2615 17.1626 13.4374C18.8946 14.3796 21.7604 15.099 25.9046 15.6464C27.2652 14.8058 29.0089 14.1411 31.1006 13.6329V13.6368Z" fill="#EDEAE5"/>
<path d="M38.9551 14.6416C39.2522 14.497 39.737 14.5322 40.0459 14.7198C40.3352 14.8997 40.3626 15.1538 40.1084 15.3063L40.0693 15.3297C38.6618 16.0217 36.3121 16.5574 32.68 17.007C31.1435 17.6755 29.6931 17.8476 27.3277 18.0978C26.9211 18.1369 26.4871 17.9844 26.3503 17.7459C26.2135 17.5074 26.4285 17.2846 26.8312 17.2416C29.1262 17.0031 30.3851 16.8467 31.7378 16.2485C31.8121 16.2094 31.9059 16.1899 32.0037 16.1781C35.4911 15.7559 37.6962 15.2633 38.9551 14.6416Z" fill="#EDEAE5"/>
<path d="M32.9811 11.635C33.4034 11.6467 33.7865 11.8539 33.8295 12.0924C33.8451 12.2097 33.7826 12.3153 33.6575 12.3896C33.5324 12.4638 33.3486 12.5068 33.1414 12.5029C31.8043 12.4599 28.876 11.7015 27.0775 11.0446C26.7022 10.9039 26.5497 10.6341 26.7413 10.4386C26.9289 10.2471 27.3981 10.204 27.7773 10.3409C29.5992 11.0134 32.1679 11.6154 32.9811 11.635Z" fill="#EDEAE5"/>
<path d="M20.4741 10.9705C20.8963 10.9822 21.2795 11.1894 21.3225 11.4279L21.6548 13.2616C21.6704 13.3789 21.6079 13.4844 21.4828 13.5587C21.3577 13.633 21.1739 13.676 20.9667 13.6721C20.5445 13.6604 20.1613 13.4531 20.1183 13.2147L19.786 11.381C19.743 11.1425 20.0518 10.9588 20.4741 10.9705Z" fill="#EDEAE5"/>
<path d="M17.9367 11.8111C18.359 11.8228 18.7421 12.03 18.7851 12.2685L18.8946 12.8784C18.9102 12.9957 18.8477 13.1013 18.7226 13.1756C18.5975 13.2498 18.4137 13.2928 18.2065 13.2889C17.7843 13.2772 17.4011 13.07 17.3581 12.8315L17.2486 12.2216C17.2056 11.9831 17.5145 11.7993 17.9367 11.8111Z" fill="#EDEAE5"/>
</svg>
