<svg width="12" height="11" viewBox="0 0 12 11" fill="none" xmlns="http://www.w3.org/2000/svg">
<path fill-rule="evenodd" clip-rule="evenodd" d="M4.78474 0.788443L3.58121 1.57527V2.20522V2.83517H3.75685H3.93248L3.93884 2.31662L3.94521 1.79807L4.94325 1.14622C5.49217 0.787674 5.96243 0.49005 5.98826 0.484801C6.01754 0.478835 6.41521 0.723992 7.04501 1.13625L8.05479 1.79728L8.06116 2.31622L8.06752 2.83517H8.24315H8.41879V2.20442V1.57368L7.21061 0.78603C6.54611 0.352824 5.99925 -0.00089969 5.99535 1.71901e-06C5.99145 0.000903128 5.44668 0.355687 4.78474 0.788443ZM5.86497 0.849553C5.79717 0.894173 5.74168 0.93585 5.74168 0.94216C5.74168 0.96716 5.88848 1.24543 5.90933 1.25999C5.92159 1.26852 5.94547 1.26256 5.9624 1.24668C5.98579 1.22475 6.11028 1.29432 6.48031 1.536C6.7482 1.71098 6.97595 1.84821 6.98635 1.84094C7.00499 1.82793 7.15068 1.54801 7.15068 1.52521C7.15068 1.51447 6.88826 1.33981 6.25508 0.929222C6.1177 0.840141 6.00146 0.767498 5.99676 0.767817C5.99209 0.768135 5.93277 0.804907 5.86497 0.849553ZM5.35994 1.18111L5.22474 1.27544L5.28505 1.38586C5.31821 1.4466 5.35688 1.52298 5.371 1.55557L5.39667 1.61485L5.52808 1.53171C5.60036 1.486 5.66863 1.43947 5.6798 1.42831C5.70383 1.40432 5.55386 1.08506 5.51904 1.08609C5.50589 1.08649 5.43429 1.12923 5.35994 1.18111ZM4.87827 1.49446C4.81024 1.54215 4.74838 1.58815 4.74082 1.59669C4.72469 1.6149 4.87569 1.93376 4.90044 1.93376C4.90969 1.93376 4.98052 1.8919 5.05787 1.84071L5.19849 1.74767L5.11198 1.57585C5.06438 1.48133 5.02016 1.40485 5.0137 1.40588C5.00724 1.40689 4.9463 1.44676 4.87827 1.49446ZM4.22813 1.98819C4.18199 2.07711 4.14951 2.15951 4.15599 2.17136C4.16247 2.18319 4.53776 2.43394 4.98996 2.72857L5.81213 3.26429L5.81117 4.03731L5.81021 4.81032L4.70158 5.53036L3.59295 6.25037L3.58711 7.8369L3.58124 9.42341L4.79138 10.2117L6.0015 11L7.21033 10.2119L8.41914 9.42375L8.4131 7.83629L8.40705 6.24886L7.30333 5.52911L6.19961 4.80934L6.19339 4.03799L6.18716 3.26663L7.0153 2.72822C7.47079 2.43208 7.84765 2.18608 7.85281 2.18157C7.86427 2.17147 7.76283 1.95267 7.71429 1.88281C7.68054 1.83424 7.64398 1.85497 6.8497 2.37338C6.39356 2.67111 6.01167 2.91471 6.00103 2.91471C5.98713 2.91471 4.81883 2.16222 4.32824 1.83729C4.31932 1.8314 4.27428 1.8993 4.22813 1.98819ZM1.18591 3.13762L0 3.91323V5.50003V7.08685L1.17417 7.85424C1.81996 8.27631 2.36947 8.62656 2.3953 8.63256C2.43363 8.64146 2.99899 8.29514 3.31752 8.06766L3.37083 8.02959L3.30735 7.90461C3.27241 7.8359 3.23211 7.75962 3.21774 7.73515C3.19451 7.69551 3.14966 7.7181 2.80955 7.94062C2.5994 8.07811 2.42111 8.1906 2.41339 8.1906C2.40566 8.1906 1.93632 7.88937 1.37042 7.52117L0.341495 6.85174L0.341566 5.49963L0.341636 4.14752L1.37746 3.4739C2.18527 2.94856 2.42163 2.80603 2.45126 2.8264C2.47214 2.84074 2.93573 3.14279 3.48141 3.49765L4.47358 4.1428V4.65551V5.16823H4.64971H4.82583L4.82529 4.53857L4.82473 3.90891L3.6318 3.13343C2.97567 2.70691 2.42377 2.35886 2.40533 2.36C2.3869 2.36111 1.83816 2.71104 1.18591 3.13762ZM8.36684 3.13409L7.17595 3.90891L7.17506 4.53857L7.17417 5.16823H7.35029H7.52642V4.65687V4.1455L8.54069 3.48371C9.09854 3.11972 9.56365 2.81789 9.57426 2.81295C9.5849 2.80802 10.0583 3.10628 10.6262 3.47575L11.6589 4.14752L11.6591 5.49963L11.6593 6.85174L10.6304 7.52117C10.0644 7.88934 9.59598 8.1906 9.58934 8.1906C9.58272 8.1906 9.40429 8.07808 9.19285 7.94057C8.85041 7.71784 8.80556 7.69541 8.78229 7.7351C8.67511 7.9179 8.63272 8.02734 8.65996 8.05086C8.73144 8.11258 9.56466 8.6413 9.59047 8.6413C9.61376 8.6413 10.914 7.80374 11.8121 7.21019L12 7.08603V5.49889V3.91172L11.1546 3.36104C10.6896 3.05816 10.1541 2.70858 9.96451 2.58416C9.77493 2.45973 9.60585 2.35825 9.58877 2.35862C9.5717 2.35899 9.02184 2.70794 8.36684 3.13409ZM2.29822 3.18248C2.23538 3.22424 2.17454 3.26217 2.16301 3.26676C2.15148 3.27137 2.18222 3.35398 2.23132 3.45033C2.31271 3.61009 2.32513 3.62321 2.37227 3.59896C2.41637 3.57629 2.49306 3.61746 2.89526 3.87982C3.1545 4.04894 3.37566 4.18728 3.38677 4.18728C3.41176 4.18728 3.56182 3.89616 3.55266 3.86545C3.54899 3.85318 3.29096 3.67741 2.97924 3.47485L2.41249 3.10655L2.29822 3.18248ZM9.45793 3.18927C9.39013 3.23378 9.33464 3.27872 9.33464 3.28916C9.33464 3.29961 9.36897 3.37472 9.41096 3.45606C9.47753 3.58509 9.49477 3.60219 9.54599 3.59021C9.59087 3.57968 9.71871 3.65063 10.0889 3.8916L10.5732 4.20677L10.6612 4.03675C10.7097 3.94324 10.7454 3.86296 10.7406 3.85838C10.7257 3.84411 9.67792 3.16238 9.62818 3.1346C9.59136 3.11402 9.55456 3.12585 9.45793 3.18927ZM1.78474 3.51502C1.70724 3.56706 1.64189 3.61158 1.63949 3.61393C1.6371 3.61629 1.67119 3.68364 1.71525 3.76357C1.7593 3.8435 1.7988 3.91975 1.80303 3.93301C1.80726 3.94626 1.88059 3.91299 1.96603 3.85904L2.12135 3.76097L2.03523 3.58994C1.98787 3.49588 1.94384 3.41926 1.93738 3.41968C1.93092 3.42008 1.86223 3.463 1.78474 3.51502ZM8.96365 3.51388L8.81577 3.60853L8.88991 3.75872C8.9307 3.84133 8.97264 3.9193 8.98312 3.932C8.9992 3.95149 9.28767 3.7785 9.28767 3.74933C9.28767 3.73661 9.12261 3.4183 9.11629 3.41883C9.11368 3.41907 9.04499 3.46184 8.96365 3.51388ZM1.27984 3.84637C1.20881 3.89189 1.14683 3.9329 1.14211 3.93754C1.13739 3.94215 1.17248 4.02455 1.22008 4.12063L1.30664 4.29535L1.39303 4.2363C1.44056 4.20383 1.50587 4.15926 1.53816 4.13726C1.57045 4.11528 1.59995 4.09515 1.60373 4.09258C1.61613 4.08405 1.44237 3.76309 1.42549 3.76333C1.41642 3.76349 1.35088 3.80085 1.27984 3.84637ZM8.44814 3.84992C8.38034 3.89669 8.32485 3.94552 8.32485 3.95846C8.32485 4.00059 8.46857 4.26682 8.49133 4.26682C8.53113 4.26682 8.77104 4.10335 8.77104 4.07623C8.77104 4.03068 8.62039 3.76304 8.59529 3.76399C8.58216 3.76447 8.51594 3.80315 8.44814 3.84992ZM0.699687 4.22042C0.657464 4.28313 0.547726 4.50959 0.555663 4.51768C0.560031 4.5221 0.938748 4.77018 1.39726 5.06891L2.23092 5.61209L2.23705 6.71576L2.24318 7.81943H2.41904H2.59491L2.59578 6.71255L2.59663 5.60568L3.42944 5.06534C3.88748 4.76816 4.26223 4.51572 4.26223 4.50434C4.26223 4.46775 4.1121 4.18728 4.09252 4.18728C4.07613 4.18728 2.59451 5.14389 2.46496 5.23814C2.42172 5.26958 2.33786 5.22117 1.58463 4.73009C1.12673 4.43154 0.745315 4.18728 0.737049 4.18728C0.728759 4.18728 0.711945 4.20221 0.699687 4.22042ZM7.81317 4.33549C7.7717 4.41698 7.73777 4.49289 7.73777 4.50416C7.73777 4.51542 8.1127 4.76787 8.57096 5.06515L9.40417 5.60568L9.40462 6.71255L9.40509 7.81943H9.58096H9.75682L9.76295 6.71587L9.76908 5.61231L10.5793 5.08411C11.0249 4.79359 11.4037 4.54642 11.4211 4.5348C11.446 4.51815 11.4368 4.48202 11.3777 4.36375C11.3365 4.28127 11.2928 4.20682 11.2806 4.19831C11.2684 4.1898 10.8916 4.42162 10.4433 4.71347C9.99497 5.00534 9.61691 5.24792 9.60315 5.25256C9.58936 5.25723 9.20687 5.01942 8.75314 4.72415C8.29942 4.42889 7.91927 4.18728 7.90838 4.18728C7.89748 4.18728 7.85465 4.25396 7.81317 4.33549ZM7.0436 5.81777L8.0651 6.48057L8.05996 7.84085L8.05479 9.20113L7.05675 9.85261C6.50783 10.2109 6.04192 10.5094 6.02139 10.5158C6.00085 10.5223 5.52268 10.2272 4.95877 9.85998L3.93346 9.19236L3.93459 7.83645L3.93574 6.48057L4.96199 5.81284C5.52643 5.44557 5.99587 5.14731 6.00517 5.15004C6.01447 5.15275 6.48176 5.45323 7.0436 5.81777ZM0.575342 5.88405V6.57337H0.751468H0.927593V5.88405V5.19474H0.751468H0.575342V5.88405ZM5.8591 5.53797C5.8006 5.5789 5.75685 5.62827 5.7611 5.64855C5.76533 5.66872 5.80044 5.74781 5.83912 5.82432C5.90128 5.94731 5.91483 5.96017 5.95606 5.93525C5.99542 5.91147 6.07843 5.95662 6.48862 6.22487C6.95514 6.52994 6.97597 6.5406 7.00978 6.49184C7.05804 6.42227 7.15982 6.20302 7.14831 6.1935C7.06863 6.12767 6.01677 5.46044 5.995 5.46196C5.97837 5.4631 5.91722 5.4973 5.8591 5.53797ZM5.37304 5.85391L5.22751 5.9519L5.30982 6.1168C5.3551 6.20753 5.39812 6.28173 5.40542 6.28173C5.43299 6.28173 5.69472 6.10959 5.69472 6.09146C5.69472 6.07149 5.53153 5.74988 5.52333 5.75372C5.52073 5.75494 5.4531 5.80004 5.37304 5.85391ZM4.88454 6.17566C4.81996 6.2189 4.75656 6.25888 4.74364 6.26453C4.73072 6.2702 4.75078 6.339 4.78823 6.41748C4.8948 6.64081 4.88816 6.63668 5.011 6.5564C5.21732 6.42158 5.20924 6.4451 5.1128 6.2605C5.06557 6.17012 5.02131 6.09636 5.01445 6.0966C5.00757 6.09684 4.94912 6.13242 4.88454 6.17566ZM4.25448 6.61976C4.16588 6.77907 4.14 6.84188 4.15571 6.85962C4.16379 6.86876 4.53715 7.11548 4.9854 7.40791L5.80039 7.93961L5.80652 9.04606L5.81265 10.1525H6H6.18735L6.19348 9.04715L6.19961 7.94181L7.01389 7.41003C7.46175 7.11755 7.83537 6.87001 7.8442 6.85993C7.86031 6.84156 7.72849 6.5599 7.69181 6.53431C7.68106 6.52678 7.29638 6.76568 6.83699 7.06516L6.00178 7.60969L5.16503 7.06503C4.70482 6.76545 4.32413 6.52034 4.31904 6.52034C4.31394 6.52034 4.28489 6.56509 4.25448 6.61976Z" fill="#05D975"/>
</svg>
