<svg width="32" height="32" viewBox="0 0 32 32" fill="none" xmlns="http://www.w3.org/2000/svg">
<path fill-rule="evenodd" clip-rule="evenodd" d="M21.7506 0.0887346C21.6076 0.133486 21.3967 0.234052 21.2819 0.312241C20.922 0.557311 17.1644 4.33105 17.0375 4.57481C16.895 4.8485 16.8817 5.23601 17.0052 5.51683C17.0539 5.62746 18.0171 6.65312 19.1459 7.79609C21.3702 10.0485 21.4413 10.1044 22.1643 10.17C22.9043 10.2371 23.6467 9.83978 24.0107 9.18194C24.18 8.87587 24.1982 8.78856 24.1982 8.28054C24.1982 7.74484 24.1705 7.62996 23.9314 7.17332C23.8881 7.09076 24.8085 7.43414 25.1613 7.63227C26.3047 8.27417 27.1802 9.40701 27.5222 10.6869C27.6724 11.2486 27.6702 12.506 27.5182 13.0583C27.1348 14.4515 26.2078 15.5818 24.953 16.1862C24.1282 16.5835 23.6371 16.687 22.5765 16.687H21.7294L21.728 15.2964L21.7266 13.9057L20.1629 11.9057C19.303 10.8056 18.4911 9.80202 18.3588 9.67552C18.2266 9.54895 18.0048 9.41489 17.866 9.37751C17.6901 9.33014 15.6413 9.31464 11.0932 9.32632L4.5726 9.34307L4.31078 9.49933C4.11653 9.61527 3.6272 10.1952 2.41291 11.7487C1.51301 12.8999 0.751927 13.9073 0.721489 13.9872C0.640799 14.1996 0.652674 30.7091 0.733802 31.0612C0.818617 31.4294 1.05969 31.736 1.37776 31.8804C1.60814 31.9851 1.80908 31.9974 3.3 31.9986C4.83486 31.9999 4.9763 31.9909 5.10943 31.8831C5.31013 31.7206 5.31013 31.3419 5.10943 31.1794C4.9768 31.072 4.83555 31.0625 3.38263 31.0625C2.02578 31.0625 1.78615 31.0484 1.70177 30.964C1.61302 30.8753 1.60489 30.0643 1.61914 22.7294L1.63502 14.5932L5.11656 14.5771L8.5981 14.5609L8.61666 17.4209C8.63497 20.2432 8.63704 20.2838 8.77279 20.502C8.84842 20.6237 9.02311 20.7866 9.16099 20.864C9.40781 21.0028 9.44031 21.0047 11.2847 20.9867C13.0721 20.9692 13.1657 20.9624 13.3341 20.8377C13.431 20.7657 13.5737 20.6139 13.651 20.5003L13.7916 20.2937V17.4278V14.562H17.2917H20.7918V15.6171V16.6721L19.8074 16.6989C18.9832 16.7214 18.776 16.7469 18.5341 16.8556C17.6276 17.2631 17.165 18.2543 17.44 19.2001C17.5658 19.6329 17.9916 20.1262 18.4413 20.3602C18.7408 20.5159 18.8233 20.5277 19.7762 20.5506L20.7918 20.575V25.7438C20.7918 29.6806 20.774 30.9303 20.7168 30.9875C20.6594 31.0449 19.0214 31.0625 13.7251 31.0625C6.82217 31.0625 6.80792 31.0627 6.6436 31.192C6.42835 31.3614 6.4191 31.672 6.62354 31.8641L6.76823 32H13.7916H20.8149L21.0917 31.866C21.2757 31.7769 21.429 31.6366 21.5489 31.4475L21.7294 31.163V25.8716V20.5803L22.8075 20.5448C23.4021 20.5253 24.124 20.4627 24.4169 20.4055C25.5689 20.1801 26.7174 19.7041 27.7295 19.0322C28.3264 18.6361 29.541 17.4244 29.966 16.8012C30.6725 15.765 31.1975 14.4612 31.3901 13.2644C31.504 12.5564 31.5179 11.2217 31.4179 10.5931C31.2605 9.60389 30.8975 8.47636 30.6483 8.20241C30.5012 8.04078 30.2541 8.02035 30.0632 8.1541C29.8432 8.30811 29.838 8.51092 30.0406 9.03688C30.4561 10.1158 30.6283 11.3122 30.5372 12.4876C30.2527 16.1595 27.3611 19.1416 23.6763 19.5629C23.3153 19.6042 22.2407 19.6241 20.9995 19.6126C19.0184 19.5943 18.918 19.5876 18.7532 19.4645C18.4253 19.2196 18.323 19.0198 18.323 18.6246C18.323 18.2075 18.4466 17.988 18.7983 17.7808C18.9976 17.6634 19.1592 17.6536 21.4481 17.6197C23.7183 17.586 23.9171 17.5741 24.3436 17.4463C27.2477 16.5756 29.0145 13.8036 28.5098 10.9096C28.042 8.22717 25.8991 6.30648 23.1352 6.09248C22.6165 6.05229 22.5599 6.05941 22.4013 6.18485C22.2691 6.28936 22.2294 6.37436 22.2294 6.5523C22.2294 6.75675 22.2814 6.83481 22.6736 7.2197C22.918 7.45939 23.1571 7.74603 23.2049 7.85665C23.4149 8.34211 23.2403 8.86956 22.7911 9.10713C22.4516 9.2867 22.192 9.28714 21.8714 9.10869C21.7324 9.03131 20.7695 8.10441 19.7314 7.04882C18.2981 5.59115 17.8527 5.10238 17.88 5.01657C17.9456 4.81006 21.68 1.13758 21.9305 1.03333C22.2598 0.896196 22.522 0.913009 22.8251 1.0907C23.1314 1.27015 23.2919 1.56034 23.2919 1.93454C23.2919 2.28186 23.2301 2.38568 22.69 2.94507C22.294 3.35533 22.2294 3.45334 22.2294 3.64372C22.2294 3.99566 22.4446 4.1241 23.0347 4.12442C24.4973 4.12517 26.1652 4.69981 27.4326 5.63953C27.7049 5.84141 28.1746 6.25804 28.4764 6.56543C29.0611 7.1607 29.2138 7.22964 29.4725 7.01488C29.5449 6.95469 29.6211 6.818 29.6417 6.71106C29.6748 6.53962 29.6349 6.46499 29.3043 6.08085C28.1119 4.6955 26.1399 3.59696 24.3232 3.30608C24.0482 3.26208 23.8141 3.21977 23.8029 3.21208C23.7917 3.20439 23.8521 3.09007 23.937 2.95801C24.1751 2.58775 24.2479 2.28093 24.216 1.78322C24.1366 0.546748 22.9325 -0.280901 21.7506 0.0887346ZM9.29149 10.2807C9.29149 10.3447 8.71498 13.5938 8.70085 13.6094C8.69279 13.6183 7.21787 13.6183 5.42325 13.6094L2.16034 13.5932L3.35694 12.0619C4.01509 11.2197 4.61198 10.4674 4.68336 10.39L4.81317 10.2494H7.0523C8.28384 10.2494 9.29149 10.2635 9.29149 10.2807ZM12.4792 11.9369L12.7664 13.5932L11.2384 13.61C10.398 13.6191 9.70119 13.6175 9.69001 13.6063C9.67876 13.595 9.80051 12.8344 9.96051 11.9161L10.2515 10.2463L11.2217 10.2635L12.192 10.2806L12.4792 11.9369ZM18.9899 11.9369L20.288 13.5932L17.03 13.6094C15.238 13.6183 13.7591 13.6128 13.7435 13.5971C13.7101 13.5637 13.1688 10.5198 13.1675 10.358C13.1667 10.2545 13.3034 10.2488 15.4292 10.2642L17.6917 10.2806L18.9899 11.9369ZM12.8541 17.3131V20.0642L11.2134 20.0476L9.57275 20.0309L9.55644 17.3746C9.54744 15.9136 9.55363 14.6831 9.57013 14.6401C9.593 14.5804 9.98314 14.562 11.2271 14.562H12.8541V17.3131Z" fill="url(#paint0_linear_264_752)"/>
<defs>
<linearGradient id="paint0_linear_264_752" x1="0.666626" y1="0" x2="32.108" y2="0.624321" gradientUnits="userSpaceOnUse">
<stop stop-color="#05D975"/>
<stop offset="1" stop-color="#04A65B"/>
</linearGradient>
</defs>
</svg>
