<svg width="24" height="24" viewBox="0 0 24 24" fill="none" xmlns="http://www.w3.org/2000/svg">
<path fill-rule="evenodd" clip-rule="evenodd" d="M0.295264 0.0903337C0.0192187 0.261099 0 0.352317 0 1.49053C0 2.48161 0.00370311 2.52271 0.106875 2.67581C0.255093 2.89574 0.39178 2.95143 0.785153 2.95223L1.125 2.95293L1.1265 5.89433C1.12809 9.06573 1.11857 8.94621 1.37756 9.04464C1.52306 9.1 1.74848 9.0122 1.79901 8.88049C1.81499 8.83877 1.82812 7.49013 1.82812 5.88359V2.96254L2.22566 2.94604C2.6024 2.93034 2.63122 2.92148 2.77644 2.77626C2.92166 2.63104 2.93052 2.60221 2.94622 2.22548L2.96272 1.82794H12H21.0372L21.0537 2.22548C21.0694 2.60221 21.0782 2.63104 21.2235 2.77626C21.3687 2.92148 21.3975 2.93034 21.7742 2.94604L22.1718 2.96254V11.9998V21.037L21.7742 21.0535C21.3975 21.0692 21.3687 21.0781 21.2235 21.2233C21.0782 21.3685 21.0694 21.3973 21.0537 21.7741L21.0372 22.1716H18.1161C16.5096 22.1716 15.161 22.1847 15.1192 22.2007C14.9875 22.2512 14.8997 22.4767 14.9551 22.6222C15.0535 22.8811 14.934 22.8716 18.1054 22.8732L21.0468 22.8747L21.0475 23.2146C21.0483 23.6079 21.104 23.7446 21.3239 23.8928C21.4771 23.9961 21.5176 23.9997 22.5186 23.9995C24.039 23.9993 23.9999 24.0386 23.9999 22.509C23.9999 21.5179 23.9962 21.4768 23.893 21.3237C23.7448 21.1038 23.6081 21.0481 23.2148 21.0473L22.8749 21.0466V11.9998V2.95293L23.2148 2.95223C23.6081 2.95143 23.7448 2.89574 23.893 2.67581C23.9962 2.52271 23.9999 2.48161 23.9999 1.49053C23.9999 0.352036 23.9805 0.259833 23.7046 0.0916931C23.5678 0.00820902 23.4634 0.000146552 22.5186 5.92783e-06C21.5176 -0.000181571 21.4771 0.00342778 21.3239 0.106693C21.104 0.254911 21.0483 0.391598 21.0475 0.784972L21.0468 1.12481H12.0048H2.96272L2.94622 0.727269C2.93057 0.350583 2.92161 0.321661 2.77654 0.17649L2.62335 0.0232558L1.53435 0.0103653C0.51792 -0.00168157 0.435326 0.00366216 0.295264 0.0903337ZM2.24999 1.47638V2.24981H1.47656H0.703122V1.47638V0.702941H1.47656H2.24999V1.47638ZM23.2968 1.47638V2.24981H22.5233H21.7499V1.47638V0.702941H22.5233H23.2968V1.47638ZM3.9515 3.74793C3.65474 3.92882 3.65624 3.9171 3.65624 6.07395C3.65624 7.95105 3.65994 8.03379 3.75074 8.18069C3.91878 8.45261 4.05481 8.48416 5.05934 8.48416C6.06368 8.48416 6.19498 8.45557 6.37971 8.19649C6.48532 8.04846 6.4931 7.99272 6.50787 7.28112L6.52352 6.52334L7.2813 6.50768C7.99291 6.49292 8.04864 6.48514 8.19667 6.37953C8.45575 6.19479 8.48434 6.0635 8.48434 5.05916C8.48434 4.05463 8.4528 3.9186 8.18087 3.75055C8.03392 3.65976 7.95142 3.65605 6.06476 3.65624C4.20031 3.65638 4.094 3.66102 3.9515 3.74793ZM15.8203 3.74924C15.5433 3.93149 15.5156 4.0499 15.5156 5.05138C15.5156 6.06411 15.5438 6.19451 15.8032 6.37953C15.9513 6.48514 16.007 6.49292 16.7186 6.50768L17.4764 6.52334L17.492 7.28112C17.5068 7.99272 17.5146 8.04846 17.6202 8.19649C17.8049 8.45557 17.9362 8.48416 18.9406 8.48416C19.9451 8.48416 20.0811 8.45261 20.2492 8.18069C20.34 8.03379 20.3437 7.95105 20.3437 6.07395C20.3437 3.9171 20.3452 3.92882 20.0484 3.74793C19.9131 3.66538 19.8082 3.65638 18.9798 3.65624C17.9481 3.65605 17.9062 3.66918 17.9062 3.99233C17.9062 4.30035 17.9954 4.33354 18.8719 4.35149L19.6405 4.36724V6.07414V7.78104H18.914H18.1874L18.1871 7.01932C18.1869 6.35211 18.1758 6.24097 18.0985 6.12359C17.9108 5.83892 17.8174 5.81295 16.9804 5.81262L16.2187 5.8123V5.09117V4.3701L16.5297 4.35032C16.798 4.33321 16.8559 4.31282 16.9516 4.20158C17.0879 4.04305 17.0913 3.93974 16.9653 3.77957C16.8723 3.6613 16.8489 3.65605 16.4145 3.65638C16.0419 3.65662 15.9358 3.67321 15.8203 3.74924ZM7.78122 5.08574V5.8123L7.0195 5.81262C6.18255 5.81295 6.08913 5.83892 5.90145 6.12359C5.82406 6.24097 5.81304 6.35211 5.81281 7.01932L5.81248 7.78104H5.08592H4.35936V6.07011V4.35918H6.07029H7.78122V5.08574ZM8.50778 7.49407C8.27678 7.63816 7.46242 8.50099 7.42797 8.63819C7.36727 8.88011 7.45263 9.01469 8.04939 9.61783L8.63809 10.2128L8.51434 10.3599C8.29342 10.6224 8.37498 11.044 8.67812 11.2063C8.72917 11.2336 9.28862 11.3294 9.92134 11.4191C11.0633 11.5811 11.073 11.5816 11.2429 11.4951C11.3445 11.4434 11.4482 11.3392 11.4981 11.2389C11.5807 11.0729 11.5793 11.0489 11.4192 9.92026C11.3295 9.28802 11.2337 8.72899 11.2065 8.67794C11.0439 8.37428 10.6227 8.29324 10.3592 8.51491L10.2113 8.63936L9.64079 8.07466C9.32701 7.76407 9.0242 7.48657 8.9679 7.45798C8.81907 7.38246 8.66772 7.39437 8.50778 7.49407ZM15.0234 7.45994C14.9718 7.48807 14.6729 7.76491 14.3591 8.07522L13.7886 8.63936L13.6407 8.51491C13.3772 8.29324 12.956 8.37428 12.7935 8.67794C12.7662 8.72899 12.6705 9.28802 12.5807 9.92026C12.4206 11.0496 12.4192 11.0728 12.5018 11.2418C12.5541 11.3488 12.6508 11.4456 12.7576 11.4978C12.9257 11.58 12.952 11.5787 13.9764 11.4384C14.5522 11.3596 15.1009 11.274 15.1957 11.2482C15.5888 11.141 15.7436 10.6666 15.4856 10.3599L15.3618 10.2128L15.9505 9.61783C16.5475 9.0145 16.6326 8.88016 16.5718 8.63786C16.5362 8.49588 15.6589 7.57666 15.4593 7.47227C15.3094 7.39385 15.1528 7.38944 15.0234 7.45994ZM9.42353 8.83572C10.1215 9.52736 10.2129 9.57381 10.4727 9.36944C10.542 9.31492 10.6047 9.27803 10.6121 9.28741C10.6392 9.32186 10.8324 10.7923 10.8125 10.8123C10.7925 10.8323 9.32204 10.639 9.28759 10.6119C9.27821 10.6045 9.3151 10.5418 9.36962 10.4725C9.57446 10.2121 9.52834 10.1222 8.82601 9.41336L8.18326 8.76471L8.46123 8.48383C8.61414 8.32933 8.74951 8.20291 8.76203 8.20291C8.77459 8.20291 9.07225 8.48768 9.42353 8.83572ZM15.5387 8.48383L15.8166 8.76471L15.1739 9.41336C14.4716 10.1222 14.4254 10.2121 14.6303 10.4725C14.6848 10.5418 14.7217 10.6045 14.7123 10.6119C14.6779 10.639 13.2074 10.8323 13.1874 10.8123C13.1675 10.7923 13.3607 9.32186 13.3878 9.28741C13.3952 9.27803 13.4579 9.31492 13.5272 9.36944C13.7875 9.57414 13.8791 9.5275 14.5746 8.83619C14.9246 8.48838 15.2221 8.20361 15.2358 8.20338C15.2495 8.2031 15.3858 8.32933 15.5387 8.48383ZM1.33593 9.94342C1.11623 10.0662 1.125 9.83186 1.125 15.5946V21.0466L0.785153 21.0473C0.39178 21.0481 0.255093 21.1038 0.106875 21.3237C0.00360936 21.477 0 21.5174 0.000187499 22.5184C0.000421873 24.0515 -0.0418123 24.0114 1.54842 23.9904L2.62335 23.9763L2.77654 23.8231C2.92161 23.6779 2.93057 23.649 2.94622 23.2723L2.96272 22.8747H8.39158C11.3774 22.8747 13.8546 22.8616 13.8963 22.8456C14.0107 22.8017 14.1158 22.5653 14.0815 22.4287C14.0133 22.1569 14.337 22.1716 8.40841 22.1716H2.96272L2.94622 21.7741C2.93052 21.3973 2.92166 21.3685 2.77644 21.2233C2.63122 21.0781 2.6024 21.0692 2.22566 21.0535L1.82812 21.037V15.5861C1.82812 10.4629 1.8232 10.1293 1.74609 10.0382C1.64371 9.91722 1.45907 9.87456 1.33593 9.94342ZM9.86715 12.5816C9.29996 12.6657 8.78936 12.7496 8.7325 12.768C8.40217 12.8754 8.28044 13.3617 8.51434 13.6396L8.63809 13.7867L8.04939 14.3817C7.45202 14.9855 7.3676 15.1188 7.42788 15.363C7.47011 15.5343 8.4654 16.5296 8.63669 16.5718C8.88058 16.632 9.01436 16.5476 9.61154 15.9568L10.2001 15.3744L10.3591 15.4918C10.6412 15.6999 11.0466 15.6203 11.2042 15.3259C11.2302 15.2772 11.3258 14.7212 11.4166 14.0903C11.5679 13.04 11.576 12.9293 11.5135 12.7798C11.433 12.5871 11.2736 12.4711 11.0557 12.4465C10.9692 12.4367 10.4343 12.4975 9.86715 12.5816ZM12.75 12.5038C12.6519 12.5528 12.552 12.6549 12.5018 12.7577C12.4192 12.9267 12.4206 12.95 12.5807 14.0793C12.6705 14.7115 12.7662 15.2706 12.7935 15.3216C12.9557 15.6247 13.3773 15.7063 13.6398 15.4854L13.7869 15.3616L14.3819 15.9503C14.9856 16.5477 15.119 16.6321 15.3632 16.5718C15.5345 16.5296 16.5298 15.5343 16.572 15.363C16.6323 15.1188 16.5479 14.9855 15.9505 14.3817L15.3618 13.7867L15.4856 13.6396C15.7076 13.3758 15.6249 12.9555 15.3186 12.7916C15.2486 12.7541 13.1146 12.4228 12.9374 12.4219C12.9246 12.4218 12.8402 12.4587 12.75 12.5038ZM10.813 13.3474C10.7981 13.4441 10.7499 13.7869 10.7059 14.1091C10.6618 14.4314 10.6197 14.7028 10.6122 14.7121C10.6048 14.7215 10.542 14.6846 10.4727 14.6301C10.2122 14.4252 10.1224 14.4713 9.41303 15.1742L8.7639 15.8174L8.47309 15.5266L8.18228 15.2358L8.8255 14.5867C9.52839 13.8773 9.57451 13.7875 9.36962 13.527C9.3151 13.4578 9.27821 13.3948 9.28759 13.3871C9.30887 13.3696 10.5765 13.1851 10.7286 13.1773C10.8316 13.1721 10.838 13.185 10.813 13.3474ZM14.1093 13.2938C14.4316 13.3379 14.7029 13.38 14.7123 13.3875C14.7217 13.395 14.6848 13.4578 14.6303 13.527C14.4254 13.7875 14.4715 13.8773 15.1744 14.5867L15.8176 15.2358L15.5268 15.5266L15.236 15.8174L14.5869 15.1742C13.8775 14.4713 13.7877 14.4252 13.5272 14.6301C13.4579 14.6846 13.3951 14.7215 13.3877 14.7121C13.3802 14.7028 13.3381 14.4314 13.294 14.1091C13.25 13.7869 13.2013 13.4409 13.1857 13.3403L13.1576 13.1574L13.3405 13.1856C13.4411 13.2011 13.7871 13.2498 14.1093 13.2938ZM3.99636 15.5925C3.91273 15.6337 3.80202 15.7359 3.75027 15.8196C3.66003 15.9656 3.65624 16.0514 3.65642 17.935C3.65656 19.7994 3.6612 19.9057 3.74811 20.0482C3.929 20.345 3.91728 20.3435 6.07413 20.3435C7.95123 20.3435 8.03397 20.3398 8.18087 20.249C8.4528 20.0809 8.48434 19.9449 8.48434 18.9404C8.48434 17.936 8.45575 17.8047 8.19667 17.62C8.04864 17.5144 7.99291 17.5066 7.2813 17.4919L6.52352 17.4762L6.50787 16.7184C6.4931 16.0068 6.48532 15.9511 6.37971 15.8031C6.19446 15.5433 6.06448 15.5152 5.05226 15.5165C4.32017 15.5173 4.11955 15.5317 3.99636 15.5925ZM17.8779 15.5824C17.7979 15.6172 17.6818 15.7166 17.6201 15.8032C17.5146 15.9511 17.5068 16.007 17.492 16.7184L17.4764 17.4762L16.7186 17.4919C16.007 17.5066 15.9513 17.5144 15.8032 17.62C15.5442 17.8047 15.5156 17.936 15.5156 18.9404C15.5156 19.9449 15.5471 20.0809 15.819 20.249C15.9659 20.3398 16.0487 20.3435 17.9258 20.3435C20.0826 20.3435 20.0709 20.345 20.2518 20.0482C20.3387 19.9057 20.3433 19.7994 20.3435 17.935C20.3437 16.0483 20.34 15.9658 20.2492 15.8188C20.0804 15.5458 19.9464 15.5151 18.9303 15.5172C18.2751 15.5185 17.983 15.5366 17.8779 15.5824ZM5.81281 16.9802C5.81313 17.8172 5.8391 17.9106 6.12377 18.0983C6.24115 18.1757 6.35229 18.1867 7.0195 18.1869L7.78122 18.1872V18.9138V19.6404H6.07029H4.35936V17.9294V16.2185H5.08592H5.81248L5.81281 16.9802ZM19.6405 17.9294V19.6404H17.9296H16.2187V18.9138V18.1872H16.9577C17.795 18.1872 17.948 18.143 18.1018 17.8562C18.1744 17.7209 18.1874 17.5837 18.1874 16.9575V16.2185H18.914H19.6405V17.9294ZM2.24999 22.5232V23.2966H1.47656H0.703122V22.5232V21.7497H1.47656H2.24999V22.5232ZM23.2968 22.5232V23.2966H22.5233H21.7499V22.5232V21.7497H22.5233H23.2968V22.5232Z" fill="#05D975"/>
</svg>
