<svg width="32" height="23" viewBox="0 0 32 23" fill="none" xmlns="http://www.w3.org/2000/svg">
<path fill-rule="evenodd" clip-rule="evenodd" d="M11.0738 0.369145C8.89512 0.670926 6.96654 1.86261 5.79048 3.63375C4.9037 4.96935 4.53935 6.17909 4.54223 7.77879C4.54404 8.8055 4.60942 9.21359 4.92372 10.1608C5.74763 12.6437 7.8973 14.5283 10.5227 15.0694C11.3403 15.2379 12.5525 15.2523 13.3391 15.103C17.1558 14.3783 19.8101 10.9096 19.4524 7.11413C19.2618 5.0929 18.2438 3.19029 16.7092 1.98728C15.7222 1.21352 14.7532 0.750014 13.5762 0.488462C12.9549 0.3504 11.6563 0.2885 11.0738 0.369145ZM13.5919 1.45247C14.7361 1.74136 15.6421 2.25002 16.5376 3.1061C20.1691 6.57789 18.6418 12.6355 13.7811 14.0395C12.3475 14.4535 10.628 14.3203 9.26266 13.6894C8.33866 13.2623 7.3382 12.4408 6.69102 11.5775C6.3091 11.068 5.84046 10.0682 5.6541 9.36535C5.51246 8.83103 5.48894 8.61326 5.48606 7.80992C5.48244 6.79597 5.58935 6.19135 5.91622 5.37811C6.78449 3.21769 8.82243 1.62634 11.1336 1.30407C11.7942 1.21196 12.9051 1.27903 13.5919 1.45247ZM11.6875 2.48778C11.5069 2.6675 11.4988 2.69746 11.5238 3.08773C11.5534 3.55136 11.6917 3.73096 12.0192 3.73096C12.3383 3.73096 12.4501 3.54632 12.4501 3.01935C12.4501 2.59383 12.4369 2.54644 12.2853 2.42775C12.0592 2.2507 11.9106 2.26565 11.6875 2.48778ZM14.0174 5.12017L12.6691 6.44705L12.3147 6.35968C11.8145 6.23638 11.361 6.36865 10.9784 6.74964C10.5939 7.13232 10.4549 7.6038 10.5833 8.0901L10.6737 8.43267L10.0918 9.03112C9.75094 9.38166 9.50983 9.68133 9.50983 9.75444C9.50983 9.98498 9.74662 10.2075 9.99198 10.2075C10.1885 10.2075 10.2833 10.1407 10.7946 9.64153C11.3063 9.14197 11.3892 9.08356 11.5015 9.14334C11.7034 9.25095 12.3258 9.22249 12.6065 9.09277C12.9158 8.94998 13.2258 8.63182 13.3541 8.32568C13.4655 8.05971 13.4812 7.55447 13.3858 7.30476C13.3228 7.13967 13.3647 7.08997 14.637 5.81839C15.8653 4.59084 15.9535 4.48765 15.9535 4.27704C15.9535 4.02738 15.7315 3.79323 15.4947 3.79323C15.4106 3.79323 14.8966 4.25487 14.0174 5.12017ZM20.8957 6.32836C20.5737 6.44624 20.4724 6.85924 20.708 7.09377C20.8268 7.21203 20.9165 7.21832 22.4909 7.21832C23.879 7.21832 24.1488 7.23264 24.1488 7.3065C24.1488 7.35495 23.4309 10.0616 22.5535 13.3212C21.6761 16.5808 20.9582 19.2594 20.9582 19.2736C20.9582 19.2879 19.3572 19.2995 17.4004 19.2995H13.8426L13.8007 18.9726C13.5561 17.059 11.0655 16.7097 9.5398 18.375C9.36707 18.5636 9.156 18.8487 9.07073 19.0087L8.91571 19.2995H7.89173C6.94664 19.2995 6.87007 19.2911 6.89816 19.1905C6.91486 19.1306 7.13413 18.317 7.38537 17.3827L7.84225 15.6837L7.71581 15.5144C7.55472 15.2988 7.19619 15.2506 7.0244 15.4216C6.88283 15.5626 5.92799 19.0864 5.93299 19.4494C5.93706 19.7439 6.09258 19.9755 6.3863 20.1245C6.56578 20.2156 6.77579 20.2335 7.67121 20.2335L8.7416 20.2336L8.77701 20.5748C8.79759 20.7733 8.8853 21.0494 8.98696 21.2352C9.51922 22.2087 10.7745 22.4878 12.0011 21.9054C12.5061 21.6656 13.191 21.0274 13.4281 20.5757L13.6075 20.234L18.9326 20.2338L24.2578 20.2336L24.2978 20.5294C24.4178 21.4175 25.1199 22.0943 26.0305 22.1999C27.0674 22.3201 28.346 21.637 28.9228 20.6547C29.157 20.2557 29.1667 20.248 29.4792 20.2067C30.0518 20.1311 30.6527 19.722 30.9034 19.2373C30.9654 19.1174 31.235 18.2206 31.5025 17.2445C32.0511 15.2423 32.1048 14.8252 31.8631 14.4415C31.7827 14.3138 31.3829 13.9786 30.8934 13.6286L30.0607 13.0329L30.0294 10.5725L29.9981 8.11195L29.826 7.85321C29.7313 7.71085 29.5343 7.53081 29.3881 7.45309C29.1304 7.31603 29.0618 7.31111 27.1437 7.29224L25.1652 7.27281L25.1311 7.02066C25.0897 6.71296 24.8386 6.43242 24.5277 6.34642C24.2984 6.28302 21.0635 6.26695 20.8957 6.32836ZM12.3719 7.42059C12.6934 7.71932 12.4609 8.27891 12.017 8.27499C11.619 8.2715 11.3723 7.92712 11.5176 7.57801C11.6658 7.22162 12.0763 7.14596 12.3719 7.42059ZM6.84211 7.33901C6.68289 7.40695 6.50697 7.64066 6.50697 7.78427C6.50697 7.8405 6.56534 7.96038 6.63666 8.05061C6.7559 8.20157 6.80351 8.21471 7.23098 8.21471C7.76035 8.21471 7.94584 8.10342 7.94584 7.7857C7.94584 7.46984 7.76455 7.32369 7.34521 7.30139C7.1422 7.29062 6.91586 7.3075 6.84211 7.33901ZM16.3914 7.32144C16.1779 7.40713 16.0786 7.55435 16.0786 7.78489C16.0786 8.11276 16.2417 8.21471 16.7667 8.21471C17.2917 8.21471 17.4549 8.11276 17.4549 7.78489C17.4549 7.45278 17.2916 7.32387 16.8426 7.30158C16.6461 7.2918 16.443 7.30071 16.3914 7.32144ZM29.0298 8.33925C29.0624 8.39063 29.0895 8.61887 29.09 8.84642L29.091 9.26017L27.8867 9.28377C26.7476 9.30619 26.6635 9.31615 26.333 9.4691C25.9563 9.64334 25.5855 9.97277 25.4308 10.2706C25.2807 10.5596 24.8367 12.2603 24.8383 12.5407C24.8413 13.0923 25.2261 13.5635 25.7766 13.6898C25.9316 13.7254 26.8184 13.7548 27.7613 13.7556L29.4657 13.7571L30.1385 14.2343C31.0325 14.8684 31.1024 14.9346 31.0801 15.1251C31.0625 15.2746 31.0376 15.2845 30.6029 15.314C30.0884 15.3489 29.9668 15.4386 29.9668 15.7833C29.9668 16.0441 30.1435 16.1928 30.5011 16.233C30.7277 16.2584 30.7843 16.2871 30.7629 16.3657C30.748 16.4209 30.6005 16.9659 30.4352 17.5769C30.1129 18.7681 29.9906 19.0215 29.658 19.1878C29.3981 19.3177 29.3412 19.2888 29.3412 19.0267C29.3412 18.4677 28.8937 17.8056 28.3167 17.5108C27.8356 17.2649 27.0864 17.2384 26.4866 17.4461C25.6839 17.7239 25.0492 18.2475 24.636 18.9726L24.4496 19.2995H23.2044C22.2991 19.2995 21.9592 19.2797 21.9592 19.227C21.9592 19.1872 22.1327 18.5014 22.3447 17.7031L22.7302 16.2516L25.6538 16.2343C28.4276 16.2178 28.5842 16.2108 28.7091 16.0983C28.8809 15.9435 28.8842 15.6064 28.7156 15.4385C28.5943 15.3177 28.5071 15.314 25.8066 15.314C23.8587 15.314 23.0227 15.2938 23.0227 15.2468C23.0227 15.1872 24.5779 9.36827 24.8154 8.53922L24.9098 8.20985L26.9402 8.22785C28.6633 8.2431 28.9795 8.25998 29.0298 8.33925ZM29.091 11.5152V12.823H27.5936C26.7701 12.823 26.0241 12.7957 25.9358 12.7623C25.7257 12.6828 25.7297 12.5902 25.985 11.6378C26.2167 10.7737 26.2579 10.6765 26.4808 10.4689C26.7157 10.2503 26.9088 10.2186 28.0431 10.2128L29.091 10.2075V11.5152ZM11.6622 11.9577C11.48 12.1582 11.4913 12.8926 11.6795 13.0799C11.8593 13.2589 12.1901 13.2534 12.3402 13.0689C12.5058 12.8653 12.4957 12.1211 12.325 11.9512C12.1564 11.7833 11.8177 11.7866 11.6622 11.9577ZM0.136783 13.9635C-0.104947 14.2197 -0.0157998 14.5676 0.321584 14.6847C0.453585 14.7305 1.35494 14.7535 3.01609 14.7535C5.08449 14.7535 5.54256 14.7379 5.6892 14.6624C5.97415 14.5157 6.03797 14.1621 5.81882 13.9439C5.69758 13.8233 5.61031 13.8194 2.98324 13.8194H0.27285L0.136783 13.9635ZM1.63189 15.9763C1.56058 16.0665 1.50221 16.2066 1.50221 16.2876C1.50221 16.4604 1.6892 16.6658 1.89277 16.7167C1.97172 16.7364 2.74915 16.7441 3.62035 16.7338C5.19929 16.7152 5.20486 16.7146 5.32397 16.5681C5.47937 16.3769 5.47599 16.1196 5.3159 15.9485C5.19066 15.8147 5.157 15.8122 3.47496 15.8122H1.76152L1.63189 15.9763ZM3.13332 17.969C2.97011 18.1755 2.96785 18.3921 3.12719 18.5507C3.30017 18.7229 3.47953 18.7548 4.13334 18.7298C4.64351 18.7102 4.71652 18.6924 4.82343 18.5609C4.98534 18.3618 4.97489 18.1056 4.79822 17.9403C4.66747 17.8181 4.58589 17.8049 3.95817 17.8049C3.28165 17.8049 3.25944 17.8094 3.13332 17.969ZM12.3953 18.3693C13.1053 18.7299 13.0044 19.8833 12.1971 20.6349C11.752 21.0494 11.2719 21.2584 10.761 21.2599C10.0539 21.2621 9.69751 20.9132 9.69751 20.2186C9.69751 18.9868 11.3631 17.8451 12.3953 18.3693ZM27.9011 18.35C28.4198 18.6093 28.5674 19.32 28.2389 19.9763C27.8999 20.6534 27.1323 21.1975 26.4191 21.2664C26.1178 21.2955 26.0101 21.277 25.779 21.1567C25.3575 20.9373 25.243 20.7411 25.2466 20.2444C25.2509 19.641 25.5729 19.0804 26.1627 18.6494C26.6943 18.261 27.4596 18.1291 27.9011 18.35ZM10.9596 19.4436C10.8848 19.5229 10.8236 19.6643 10.8236 19.7579C10.8236 19.9418 11.0694 20.2336 11.2244 20.2336C11.4002 20.2336 11.6229 20.0956 11.6925 19.9436C11.7953 19.7189 11.7787 19.6219 11.6084 19.4524C11.4114 19.2562 11.1399 19.2526 10.9596 19.4436ZM26.5695 19.3687C26.2807 19.5359 26.316 20.0222 26.6271 20.1633C26.8442 20.2618 26.9234 20.2522 27.1119 20.1045C27.4355 19.8513 27.2578 19.297 26.8545 19.3014C26.7599 19.3025 26.6316 19.3327 26.5695 19.3687Z" fill="url(#paint0_linear_264_756)"/>
<defs>
<linearGradient id="paint0_linear_264_756" x1="0" y1="0.333252" x2="32.6301" y2="1.31718" gradientUnits="userSpaceOnUse">
<stop stop-color="#05D975"/>
<stop offset="1" stop-color="#04A65B"/>
</linearGradient>
</defs>
</svg>
