<svg width="32" height="32" viewBox="0 0 32 32" fill="none" xmlns="http://www.w3.org/2000/svg">
<ellipse cx="15.8954" cy="9.50649" rx="8.60778" ry="9.50649" fill="#05D975"/>
<path d="M2.06071 24.3522L11.0399 19.4287C11.0399 19.4287 13.2095 20.9058 16.2471 20.9058C19.2846 20.9058 21.1205 19.4287 21.1205 19.4287L29.9661 24.3522C29.9661 24.3522 31.4541 25.4943 31.802 26.5514C32.0951 27.4417 32.0407 28.0417 31.802 28.9475C31.482 30.1625 31.0845 31.0015 29.9661 31.6063C29.5435 31.8348 28.7978 32.0001 28.7978 32.0001H3.26238C3.26238 32.0001 2.49692 31.8356 2.06071 31.6063C0.915523 31.004 0.410088 30.1934 0.124691 28.9475C-0.0849248 28.0325 -0.0308863 27.4341 0.291589 26.5514C0.668084 25.5209 2.06071 24.3522 2.06071 24.3522Z" fill="#05D975"/>
</svg>
