<svg width="24" height="19" viewBox="0 0 24 19" fill="none" xmlns="http://www.w3.org/2000/svg">
<path fill-rule="evenodd" clip-rule="evenodd" d="M7.6157 0.3515C7.20307 0.543345 6.82856 0.732699 6.78341 0.772359C6.67092 0.871095 6.67734 1.1293 6.79513 1.24515C6.93364 1.38137 7.1287 1.35878 7.53467 1.15946C7.73395 1.0616 8.0249 0.925651 8.18114 0.857352L8.46524 0.73316L9.77538 1.33918C10.496 1.67251 11.0996 1.95889 11.1168 1.97563C11.143 2.00113 4.38032 5.16957 3.99207 5.31368C3.87738 5.35625 3.72297 5.29611 2.53948 4.74788C1.38281 4.21205 1.09617 4.05825 1.25428 4.05825C1.30816 4.05825 5.86672 1.93961 5.9394 1.88082C5.97166 1.85471 5.99801 1.75289 5.99801 1.65457C5.99801 1.41389 5.85687 1.27125 5.65276 1.3057C5.41081 1.34651 0.219151 3.77551 0.101646 3.90293C-0.0248153 4.03999 -0.0336305 4.19886 0.078201 4.32513C0.123309 4.37609 0.807474 4.7156 1.59855 5.07964C2.38962 5.44368 3.02263 5.75506 3.00523 5.77167C2.98784 5.78827 2.34062 6.09457 1.56694 6.45239C0.793267 6.81016 0.123356 7.14649 0.078201 7.19975C-0.0340994 7.33229 -0.0247215 7.50108 0.101646 7.62283C0.159695 7.67877 0.949784 8.06693 1.85743 8.48544L3.50775 9.24636L3.522 12.1386C3.53462 14.6935 3.54489 15.0392 3.60997 15.1032C3.70727 15.1988 11.8934 19 12.0021 19C12.0952 19 20.2816 15.2082 20.3645 15.1266C20.401 15.0908 20.4235 14.2081 20.44 12.1724L20.4634 9.26933L22.1515 8.4853C23.0799 8.05411 23.8764 7.65755 23.9215 7.60406C24.0262 7.48 24.0262 7.32335 23.9215 7.19957C23.8524 7.11781 22.727 6.57109 21.2857 5.91915L20.9358 5.76083L22.3876 5.08919C23.1861 4.71979 23.8764 4.37595 23.9215 4.32504C24.0334 4.19891 24.0246 4.04017 23.8981 3.9021C23.8344 3.8326 22.9561 3.40017 21.6826 2.81131C20.522 2.27465 18.684 1.4226 17.598 0.917811C16.5121 0.413019 15.5862 0 15.5406 0C15.495 0 14.6795 0.361738 13.7283 0.803903L11.9989 1.60776L10.2715 0.803903C9.3214 0.361738 8.50397 0.000599484 8.45497 0.00133735C8.40602 0.00207521 8.02833 0.159655 7.6157 0.3515ZM19.1347 2.39797C21.1007 3.31103 22.7267 4.07518 22.7479 4.09607C22.7835 4.13107 20.2246 5.34951 20.1155 5.34951C20.0888 5.34951 19.3333 5.00964 18.4365 4.59422C16.8446 3.85677 13.7287 2.40876 13.1301 2.12828L12.8302 1.98771L13.4349 1.70576C13.7675 1.55067 14.2506 1.32677 14.5085 1.20816C14.7664 1.08959 15.0934 0.936488 15.2353 0.867913C15.3771 0.799337 15.5082 0.742061 15.5266 0.740539C15.5451 0.739063 17.1687 1.48491 19.1347 2.39797ZM15.689 4.08449C17.6536 4.99585 19.2467 5.75516 19.2292 5.7718C19.2117 5.78845 17.5779 6.55385 15.5986 7.47267L11.9998 9.14324L10.6049 8.49489C9.83765 8.13827 8.39758 7.46866 7.40469 7.0069C6.41181 6.54508 5.39998 6.0759 5.1562 5.96425L4.71291 5.7612L6.68011 4.84542C7.76204 4.34173 9.38578 3.58542 10.2884 3.1647C11.191 2.74402 11.9717 2.40604 12.0233 2.41365C12.0749 2.42125 13.7245 3.17314 15.689 4.08449ZM7.54368 7.8375C9.51562 8.7543 11.1353 9.51056 11.1431 9.51812C11.1639 9.53869 8.5285 10.7605 8.46332 10.7605C8.43256 10.7605 7.52239 10.3498 6.44074 9.84781C5.35909 9.34583 3.75669 8.60331 2.87985 8.19781C2.00302 7.79226 1.26727 7.44371 1.24486 7.42328C1.22245 7.40281 1.44377 7.27548 1.73668 7.14026C2.0296 7.00505 2.62824 6.72503 3.06689 6.51806C3.50559 6.31104 3.88563 6.14821 3.91142 6.15618C3.93721 6.16416 5.57173 6.92075 7.54368 7.8375ZM21.4288 6.75233C22.1615 7.09272 22.754 7.38846 22.7454 7.40949C22.7271 7.45423 15.5563 10.7909 15.5186 10.7723C15.5046 10.7654 14.8953 10.4828 14.1648 10.1443L12.8364 9.52887L12.9925 9.45121C13.0784 9.4085 13.971 8.99216 14.976 8.52597C16.7548 7.70095 20.0841 6.14705 20.0925 6.13801C20.0948 6.13552 20.6961 6.41199 21.4288 6.75233ZM6.31025 10.5554C7.39461 11.0598 8.32711 11.4867 8.38253 11.5039C8.48967 11.5374 8.59878 11.4911 10.5419 10.5879C11.1197 10.3193 11.5997 10.0995 11.6086 10.0995C11.6175 10.0995 11.6248 11.8946 11.6248 14.0886C11.6248 16.2826 11.6163 18.0777 11.6059 18.0777C11.5955 18.0777 9.93387 17.3101 7.91335 16.3719L4.23965 14.6661L4.2275 12.1522C4.21761 10.0997 4.22671 9.63835 4.27707 9.63835C4.31097 9.63835 5.22588 10.051 6.31025 10.5554ZM19.735 12.1632L19.7333 14.6881L16.1008 16.3714C14.1029 17.2971 12.4367 18.0613 12.3982 18.0695C12.3364 18.0827 12.3281 17.6101 12.3281 14.092C12.3281 11.7883 12.3458 10.0995 12.3699 10.0995C12.3928 10.0995 13.0832 10.4115 13.904 10.7929C14.7248 11.1743 15.4393 11.4965 15.4916 11.5089C15.5495 11.5226 15.8542 11.4076 16.2668 11.2164C16.6408 11.043 17.1681 10.7986 17.4386 10.6733C17.7091 10.548 18.3105 10.2657 18.7749 10.0461C19.2394 9.82641 19.6458 9.64485 19.678 9.64255C19.7243 9.63923 19.7363 10.171 19.735 12.1632Z" fill="#05D975"/>
</svg>
