<svg width="185" height="53" viewBox="0 0 185 53" fill="none" xmlns="http://www.w3.org/2000/svg">
<path d="M1 50.1674V41.0513H4.16136C4.59068 41.0513 4.98655 41.0847 5.34897 41.1516C5.71138 41.2185 6.02919 41.3356 6.30239 41.5029C6.5756 41.6646 6.78747 41.8932 6.93801 42.1887C7.08855 42.4786 7.16104 42.8522 7.16104 43.2982C7.16104 43.8056 7.0328 44.2405 6.78189 44.6029C6.53099 44.9653 6.16858 45.2274 5.7058 45.3891C6.31354 45.4727 6.79304 45.718 7.13316 46.1195C7.47327 46.5209 7.64054 47.0394 7.64054 47.6751C7.64054 48.1657 7.54575 48.5727 7.3506 48.8961C7.15546 49.2195 6.89341 49.476 6.55887 49.6656C6.22433 49.8551 5.84519 49.9889 5.42702 50.067C5.00328 50.1451 4.5628 50.1841 4.10003 50.1841H1.00558L1 50.1674ZM1.93112 45.127H3.79895C4.11676 45.127 4.42341 45.0991 4.71892 45.0378C5.01443 44.9765 5.28206 44.8761 5.51066 44.7423C5.74483 44.6029 5.92325 44.4245 6.05707 44.2015C6.19088 43.9785 6.25779 43.6997 6.25779 43.3651C6.25779 42.9358 6.15743 42.618 5.96228 42.4117C5.76714 42.2054 5.51066 42.066 5.19285 41.9991C4.88061 41.9322 4.53493 41.8932 4.16694 41.8932H1.92555V45.1326L1.93112 45.127ZM1.93112 49.331H4.061C4.34536 49.331 4.64086 49.3143 4.9531 49.2808C5.26533 49.2474 5.54969 49.1749 5.81731 49.069C6.08494 48.963 6.29682 48.7902 6.46409 48.5616C6.62578 48.3274 6.70941 48.0208 6.70941 47.6305C6.70941 47.2848 6.6425 47.006 6.51426 46.7941C6.38603 46.5823 6.21318 46.4094 5.99016 46.2867C5.77271 46.1641 5.52738 46.0749 5.25418 46.0303C4.98097 45.9857 4.70777 45.9578 4.42342 45.9578H1.9367V49.3366L1.93112 49.331Z" fill="#31585C"/>
<path d="M12.9983 50.2733C12.0504 50.2733 11.2698 50.0726 10.6509 49.6712C10.032 49.2697 9.56928 48.7177 9.26262 48.0152C8.95596 47.3127 8.80542 46.5098 8.80542 45.6177C8.80542 44.7256 8.96154 43.9283 9.2682 43.2258C9.57485 42.5233 10.0432 41.9713 10.6677 41.5642C11.2921 41.1572 12.0727 40.9509 13.0094 40.9509C13.6172 40.9509 14.1636 41.0457 14.6319 41.2297C15.1058 41.4137 15.4961 41.6813 15.8139 42.027C16.1262 42.3727 16.3492 42.7965 16.4774 43.2815H15.5352C15.3623 42.8076 15.0557 42.4396 14.6152 42.1776C14.1747 41.9155 13.6395 41.7817 13.0094 41.7817C12.2456 41.7817 11.6211 41.9601 11.1472 42.3114C10.6677 42.6626 10.3164 43.1254 10.0878 43.7053C9.85921 44.2796 9.7477 44.904 9.7477 45.5731C9.7477 46.2812 9.86478 46.9224 10.099 47.5078C10.3331 48.0933 10.69 48.5561 11.1695 48.9073C11.649 49.253 12.2679 49.4314 13.015 49.4314C13.4276 49.4314 13.8123 49.3757 14.1636 49.2586C14.5148 49.1415 14.8215 48.9742 15.078 48.7512C15.3344 48.5282 15.5184 48.255 15.6299 47.9371H16.6503C16.5053 48.4278 16.26 48.846 15.9143 49.1917C15.5686 49.5429 15.1504 49.805 14.6598 49.989C14.1636 50.173 13.6116 50.2678 13.0038 50.2678L12.9983 50.2733Z" fill="#31585C"/>
<path d="M18.1228 50.1674V41.0513H24.1723V41.8876H19.0539V45.2274H23.6594V46.0805H19.0539V49.331H24.1723V50.1674H18.1228Z" fill="#31585C"/>
<path d="M28.6049 52.7321V49.3254C28.9339 49.2975 29.1848 49.2027 29.3576 49.0411C29.5361 48.8794 29.6699 48.6786 29.7647 48.45C29.8483 48.2382 29.9208 47.9761 29.971 47.675C30.0211 47.3739 30.0657 47.0561 30.0936 46.7216C30.1215 46.3871 30.1494 46.0581 30.1661 45.7292C30.2107 44.9207 30.2386 44.129 30.2609 43.3539C30.2832 42.5789 30.2999 41.8095 30.3055 41.0457H36.0428V49.3254H37.1635V52.7321H36.2324V50.1673H29.5416V52.7321H28.5994H28.6049ZM30.3613 49.3254H35.1172V41.882H31.2199L31.0917 45.7793C31.0805 45.9856 31.0749 46.2365 31.0582 46.532C31.0471 46.8275 31.0136 47.1398 30.969 47.4632C30.9188 47.7866 30.8463 48.1099 30.7515 48.4277C30.6512 48.7511 30.5229 49.0466 30.3557 49.3254H30.3613Z" fill="#31585C"/>
<path d="M38.011 50.2565V49.3254C38.2061 49.3143 38.3845 49.2697 38.5407 49.1916C38.6968 49.108 38.8306 48.9965 38.9477 48.8571C39.0648 48.7177 39.154 48.556 39.2097 48.372C39.2934 48.1155 39.3603 47.8311 39.4049 47.5189C39.4495 47.2123 39.4774 46.8945 39.4941 46.5711C39.5108 46.2477 39.522 45.9466 39.522 45.6622L39.6 41.0457H45.5938V50.1618H44.6627V41.882H40.5367L40.4587 45.1716C40.4475 45.6678 40.4364 46.1696 40.4196 46.6714C40.4029 47.1732 40.3583 47.6472 40.2858 48.0876C40.2133 48.5281 40.0795 48.9017 39.8788 49.2028C39.706 49.5206 39.4718 49.7659 39.1707 49.9443C38.8696 50.1227 38.4849 50.2231 38.011 50.2454V50.2565Z" fill="#31585C"/>
<path d="M47.3331 50.1673L49.318 46.5042C48.6879 46.3648 48.1806 46.086 47.7903 45.6511C47.4 45.2218 47.2048 44.6308 47.2048 43.8836C47.2048 43.3651 47.2829 42.9302 47.4446 42.5734C47.6063 42.2165 47.8293 41.9266 48.1192 41.698C48.4092 41.4694 48.7604 41.3077 49.1619 41.2018C49.5633 41.1014 50.0149 41.0457 50.5056 41.0457H53.8175V50.1618H52.8864V46.6658H50.2435L48.3757 50.1618H47.3331V50.1673ZM50.723 45.8351H52.8919V41.8876H50.5167C50.0205 41.8876 49.5912 41.9545 49.2344 42.0883C48.8775 42.2221 48.6043 42.4284 48.4203 42.7128C48.2363 42.9971 48.1415 43.3763 48.1415 43.8502C48.1415 44.3631 48.2642 44.7702 48.5039 45.0545C48.7437 45.3444 49.0615 45.5452 49.4518 45.6622C49.8421 45.7793 50.2658 45.8351 50.723 45.8351Z" fill="#31585C"/>
<path d="M58.6572 50.1674L61.5955 45.6009L58.7464 41.0513H59.9061L62.2033 44.8427L64.4837 41.0513H65.6323L62.7943 45.5675L65.7326 50.1729H64.5952L62.1865 46.3536L59.7612 50.1729H58.6516L58.6572 50.1674Z" fill="#31585C"/>
<path d="M70.305 50.2733C69.3572 50.2733 68.571 50.0726 67.941 49.6656C67.3109 49.2641 66.8314 48.7066 66.508 48.0041C66.1846 47.3015 66.0229 46.5042 66.0229 45.6177C66.0229 44.7312 66.1846 43.9227 66.508 43.2202C66.8314 42.5177 67.3053 41.9601 67.941 41.5587C68.571 41.1516 69.3627 40.9509 70.305 40.9509C71.2473 40.9509 72.039 41.1516 72.6635 41.5587C73.2935 41.9601 73.7675 42.5177 74.0908 43.2202C74.4142 43.9283 74.5759 44.7256 74.5759 45.6177C74.5759 46.5098 74.4142 47.296 74.0908 48.0041C73.7675 48.7122 73.2935 49.2641 72.6635 49.6656C72.0334 50.0726 71.2473 50.2733 70.305 50.2733ZM70.305 49.437C71.0633 49.437 71.6822 49.2642 72.1728 48.924C72.6635 48.5784 73.0259 48.1156 73.2601 47.5357C73.4943 46.9558 73.6169 46.3147 73.6169 45.6233C73.6169 45.0992 73.55 44.6029 73.4162 44.1402C73.2824 43.6774 73.0761 43.2704 72.8029 42.9135C72.5297 42.5623 72.184 42.2835 71.7658 42.0884C71.3476 41.8932 70.8626 41.7928 70.305 41.7928C69.5579 41.7928 68.9334 41.9657 68.4428 42.317C67.9465 42.6682 67.5785 43.131 67.3332 43.7109C67.0879 44.2907 66.9652 44.9319 66.9652 45.6289C66.9652 46.3258 67.0879 46.9503 67.3276 47.5301C67.5674 48.11 67.9354 48.5728 68.4372 48.924C68.9334 49.2697 69.5579 49.4481 70.305 49.4481V49.437Z" fill="#31585C"/>
<path d="M76.1369 50.1674V41.0513H79.2593C79.9228 41.0513 80.4859 41.1572 80.9598 41.3746C81.4337 41.5921 81.7962 41.921 82.0471 42.3615C82.298 42.802 82.4262 43.3651 82.4262 44.0454C82.4262 44.7256 82.2757 45.2776 81.9802 45.7348C81.6846 46.192 81.2776 46.5321 80.7702 46.7551C80.2573 46.9781 79.6719 47.0896 79.0084 47.0896H77.0625V50.1729H76.1313L76.1369 50.1674ZM77.068 46.2477H78.9749C79.7165 46.2477 80.3186 46.0693 80.7814 45.718C81.2442 45.3668 81.4783 44.7869 81.4783 43.9896C81.4783 43.2648 81.2832 42.7351 80.8929 42.395C80.5026 42.0549 79.9339 41.8876 79.1979 41.8876H77.068V46.2477Z" fill="#31585C"/>
<path d="M87.8902 50.2733C86.9424 50.2733 86.1562 50.0726 85.5262 49.6656C84.8961 49.2641 84.4166 48.7066 84.0932 48.0041C83.7698 47.3015 83.6082 46.5042 83.6082 45.6177C83.6082 44.7312 83.7698 43.9227 84.0932 43.2202C84.4166 42.5177 84.8905 41.9601 85.5262 41.5587C86.1562 41.1516 86.9479 40.9509 87.8902 40.9509C88.8325 40.9509 89.6242 41.1516 90.2487 41.5587C90.8787 41.9601 91.3527 42.5177 91.676 43.2202C91.9994 43.9283 92.1611 44.7256 92.1611 45.6177C92.1611 46.5098 91.9994 47.296 91.676 48.0041C91.3527 48.7122 90.8787 49.2641 90.2487 49.6656C89.6186 50.0726 88.8325 50.2733 87.8902 50.2733ZM87.8902 49.437C88.6485 49.437 89.2674 49.2642 89.758 48.924C90.2487 48.5784 90.6111 48.1156 90.8453 47.5357C91.0795 46.9558 91.2021 46.3147 91.2021 45.6233C91.2021 45.0992 91.1352 44.6029 91.0014 44.1402C90.8676 43.6774 90.6613 43.2704 90.3881 42.9135C90.1149 42.5623 89.7692 42.2835 89.351 42.0884C88.9329 41.8932 88.4478 41.7928 87.8902 41.7928C87.1431 41.7928 86.5186 41.9657 86.028 42.317C85.5317 42.6682 85.1637 43.131 84.9184 43.7109C84.6731 44.2907 84.5504 44.9319 84.5504 45.6289C84.5504 46.3258 84.6731 46.9503 84.9128 47.5301C85.1526 48.11 85.5206 48.5728 86.0224 48.924C86.5186 49.2697 87.1431 49.4481 87.8902 49.4481V49.437Z" fill="#31585C"/>
<path d="M93.7222 50.1674V41.0513H94.6533V49.331H98.3666V41.0513H99.2978V49.331H103V41.0513H103.942V50.1674H93.7277H93.7222Z" fill="#31585C"/>
<path d="M105.989 50.1674V41.0513H112.038V41.8876H106.92V45.2274H111.525V46.0805H106.92V49.331H112.038V50.1674H105.989Z" fill="#31585C"/>
<path d="M113.516 50.1674V41.0513H119.292V41.8876H114.441V50.1674H113.51H113.516Z" fill="#31585C"/>
<path d="M124.037 50.2733C123.089 50.2733 122.303 50.0726 121.673 49.6656C121.043 49.2641 120.563 48.7066 120.24 48.0041C119.917 47.3015 119.755 46.5042 119.755 45.6177C119.755 44.7312 119.917 43.9227 120.24 43.2202C120.563 42.5177 121.037 41.9601 121.673 41.5587C122.303 41.1516 123.095 40.9509 124.037 40.9509C124.979 40.9509 125.771 41.1516 126.395 41.5587C127.025 41.9601 127.499 42.5177 127.823 43.2202C128.146 43.9283 128.308 44.7256 128.308 45.6177C128.308 46.5098 128.146 47.296 127.823 48.0041C127.499 48.7122 127.025 49.2641 126.395 49.6656C125.765 50.0726 124.979 50.2733 124.037 50.2733ZM124.037 49.437C124.795 49.437 125.414 49.2642 125.905 48.924C126.395 48.5784 126.758 48.1156 126.992 47.5357C127.226 46.9558 127.349 46.3147 127.349 45.6233C127.349 45.0992 127.282 44.6029 127.148 44.1402C127.014 43.6774 126.808 43.2704 126.535 42.9135C126.262 42.5623 125.916 42.2835 125.498 42.0884C125.08 41.8932 124.595 41.7928 124.037 41.7928C123.29 41.7928 122.665 41.9657 122.175 42.317C121.678 42.6682 121.31 43.131 121.065 43.7109C120.82 44.2907 120.697 44.9319 120.697 45.6289C120.697 46.3258 120.82 46.9503 121.06 47.5301C121.299 48.11 121.667 48.5728 122.169 48.924C122.665 49.2697 123.29 49.4481 124.037 49.4481V49.437Z" fill="#31585C"/>
<path d="M133.9 50.1785V49.2864C134.296 49.2864 134.636 49.2418 134.92 49.147C135.205 49.0522 135.45 48.9017 135.656 48.701C135.863 48.5002 136.052 48.2382 136.225 47.9204L132.679 41.0457H133.777L136.755 46.9279L139.18 41.0457H140.184L138.082 45.9856C137.987 46.2198 137.864 46.4986 137.719 46.8275C137.574 47.1565 137.413 47.5022 137.229 47.8535C137.05 48.2047 136.855 48.5337 136.654 48.8348C136.454 49.1358 136.247 49.3756 136.041 49.5596C135.757 49.7938 135.439 49.9554 135.093 50.0447C134.747 50.1339 134.346 50.1785 133.9 50.1785Z" fill="#31585C"/>
<path d="M141.355 50.1674V41.0513H144.477C145.141 41.0513 145.704 41.1572 146.178 41.3746C146.652 41.5921 147.014 41.921 147.265 42.3615C147.516 42.802 147.644 43.3651 147.644 44.0454C147.644 44.7256 147.493 45.2776 147.198 45.7348C146.902 46.192 146.495 46.5321 145.988 46.7551C145.475 46.9781 144.89 47.0896 144.226 47.0896H142.28V50.1729H141.349L141.355 50.1674ZM142.286 46.2477H144.193C144.934 46.2477 145.536 46.0693 145.999 45.718C146.462 45.3668 146.696 44.7869 146.696 43.9896C146.696 43.2648 146.501 42.7351 146.111 42.395C145.72 42.0549 145.152 41.8876 144.416 41.8876H142.286V46.2477Z" fill="#31585C"/>
<path d="M153.102 50.2733C152.155 50.2733 151.368 50.0726 150.738 49.6656C150.108 49.2641 149.629 48.7066 149.305 48.0041C148.982 47.3015 148.82 46.5042 148.82 45.6177C148.82 44.7312 148.982 43.9227 149.305 43.2202C149.629 42.5177 150.103 41.9601 150.738 41.5587C151.368 41.1516 152.16 40.9509 153.102 40.9509C154.045 40.9509 154.836 41.1516 155.461 41.5587C156.091 41.9601 156.565 42.5177 156.888 43.2202C157.212 43.9283 157.373 44.7256 157.373 45.6177C157.373 46.5098 157.212 47.296 156.888 48.0041C156.565 48.7122 156.091 49.2641 155.461 49.6656C154.831 50.0726 154.045 50.2733 153.102 50.2733ZM153.102 49.437C153.861 49.437 154.48 49.2642 154.97 48.924C155.461 48.5784 155.823 48.1156 156.057 47.5357C156.292 46.9558 156.414 46.3147 156.414 45.6233C156.414 45.0992 156.347 44.6029 156.214 44.1402C156.08 43.6774 155.873 43.2704 155.6 42.9135C155.327 42.5623 154.981 42.2835 154.563 42.0884C154.145 41.8932 153.66 41.7928 153.102 41.7928C152.355 41.7928 151.731 41.9657 151.24 42.317C150.744 42.6682 150.376 43.131 150.131 43.7109C149.885 44.2907 149.763 44.9319 149.763 45.6289C149.763 46.3258 149.885 46.9503 150.125 47.5301C150.365 48.11 150.733 48.5728 151.235 48.924C151.731 49.2697 152.355 49.4481 153.102 49.4481V49.437Z" fill="#31585C"/>
<path d="M157.813 50.1673L160.289 45.5619L157.825 41.0457H158.856L161.114 45.2775H162.664V41.0457H163.595V45.2775H165.168L167.426 41.0457H168.418L165.954 45.5619L168.441 50.1673H167.359L165.207 46.1195H163.595V50.1673H162.664V46.1195H161.053L158.901 50.1673H157.819H157.813Z" fill="#31585C"/>
<path d="M169.227 50.1674L172.684 41.0513H173.96L177.417 50.1674H176.397L175.65 48.1546H170.994L170.247 50.1674H169.227ZM171.301 47.3182H175.327L173.314 41.9155L171.301 47.3182Z" fill="#31585C"/>
<path d="M178.516 50.1673L180.501 46.5042C179.871 46.3648 179.363 46.086 178.973 45.6511C178.583 45.2218 178.387 44.6308 178.387 43.8836C178.387 43.3651 178.466 42.9302 178.627 42.5734C178.789 42.2165 179.012 41.9266 179.302 41.698C179.592 41.4694 179.943 41.3077 180.344 41.2018C180.746 41.1014 181.198 41.0457 181.688 41.0457H185V50.1618H184.069V46.6658H181.426L179.558 50.1618H178.516V50.1673ZM181.906 45.8351H184.075V41.8876H181.699C181.203 41.8876 180.774 41.9545 180.417 42.0883C180.06 42.2221 179.787 42.4284 179.603 42.7128C179.419 42.9971 179.324 43.3763 179.324 43.8502C179.324 44.3631 179.447 44.7702 179.687 45.0545C179.926 45.3444 180.244 45.5452 180.634 45.6622C181.025 45.7793 181.448 45.8351 181.906 45.8351Z" fill="#31585C"/>
<path d="M0.682373 35.915V8.94604H22.3732V15.3032H8.15766V18.4231H13.3575C16.6182 18.4231 19.2377 19.162 21.216 20.6399C23.1943 22.1177 24.1834 24.268 24.1834 27.0947C24.1834 29.9214 23.2451 32.0326 21.3723 33.5848C19.4957 35.1408 16.9544 35.915 13.7446 35.915H0.682373ZM8.15766 29.636H13.166C14.2958 29.636 15.1677 29.3936 15.7854 28.9049C16.4032 28.4162 16.712 27.7086 16.712 26.7859C16.712 25.9375 16.3992 25.2689 15.7698 24.7841C15.1403 24.2954 14.288 24.053 13.209 24.053H8.16157V29.6399L8.15766 29.636Z" fill="#05D975"/>
<path d="M27.366 35.9149V8.94604H49.0568V15.3032H34.7631V19.3888H47.708V25.2846H34.7631V29.5617H49.2484V35.9189H27.366V35.9149Z" fill="#05D975"/>
<path d="M53.0486 35.915V8.94604H64.6056C68.0461 8.94604 70.775 9.78662 72.7924 11.4717C74.8098 13.1528 75.8185 15.4986 75.8185 18.5013C75.8185 21.5039 74.7512 23.9709 72.6204 25.6677C70.4896 27.3645 67.6903 28.209 64.2224 28.209H60.5239V35.915H53.0486ZM60.5239 22.3523H64.0699C65.4071 22.3523 66.4509 22.0317 67.2094 21.3905C67.9679 20.7493 68.3471 19.8736 68.3471 18.771C68.3471 17.6685 67.9679 16.7341 67.2094 16.132C66.4509 15.5299 65.3914 15.225 64.0308 15.225H60.5239V22.3523Z" fill="#05D975"/>
<path d="M78.1956 35.915V8.94604H85.5927V24.1273L96.0354 8.94604H103.01V35.915H95.6131V20.7337L85.1704 35.915H78.1956Z" fill="#05D975"/>
<path d="M120.17 36.4547C116.264 36.4547 112.972 35.1254 110.286 32.4668C107.6 29.8083 106.259 26.4616 106.259 22.4307C106.259 18.3999 107.612 15.147 110.325 12.4532C113.035 9.75557 116.417 8.40674 120.479 8.40674C125.28 8.40674 129.057 10.3068 131.805 14.107L126.335 18.3451C124.666 16.2652 122.688 15.2252 120.401 15.2252C118.524 15.2252 116.984 15.9172 115.775 17.3051C114.567 18.6931 113.965 20.4016 113.965 22.4307C113.965 24.4598 114.567 26.1996 115.775 27.5759C116.984 28.9521 118.524 29.6362 120.401 29.6362C121.71 29.6362 122.828 29.3587 123.751 28.8074C124.678 28.2561 125.589 27.439 126.488 26.3599L132.114 30.3674C130.703 32.2948 129.057 33.7883 127.184 34.8557C125.307 35.923 122.969 36.4547 120.17 36.4547Z" fill="#04A65B"/>
<path d="M134.503 35.9149V8.94604H156.194V15.3032H141.9V19.3888H154.845V25.2846H141.9V29.5617H156.385V35.9189H134.503V35.9149Z" fill="#04A65B"/>
<path d="M160.185 35.9152V8.94629H167.582V24.1275L178.025 8.94629H185V35.9152H177.603V20.7339L167.16 35.9152H160.185ZM172.821 7.21039C170.972 7.21039 169.451 6.69822 168.255 5.66998C167.062 4.64174 166.323 3.19125 166.038 1.31461L170.124 0.583496C170.687 2.12391 171.59 2.89411 172.821 2.89411C174.053 2.89411 174.991 2.12391 175.558 0.583496L179.644 1.31461C179.362 3.19125 178.623 4.64174 177.427 5.66998C176.235 6.69822 174.698 7.21039 172.821 7.21039Z" fill="#04A65B"/>
</svg>
