<svg width="23" height="24" viewBox="0 0 23 24" fill="none" xmlns="http://www.w3.org/2000/svg">
<path fill-rule="evenodd" clip-rule="evenodd" d="M10.1358 0.0693069C8.82095 0.277199 7.64906 0.886335 6.72384 1.84279C5.76026 2.83882 5.28932 3.83846 5.04706 5.40199L5.01981 5.57785L4.23645 5.57813C3.80557 5.57827 3.37544 5.59994 3.28061 5.62629C2.86375 5.74203 2.41448 6.19257 2.30742 6.60221C2.22929 6.90108 0.00682201 22.2634 0.00039721 22.5492C-0.0124055 23.1145 0.284964 23.6034 0.793368 23.8531C1.0603 23.9842 1.06494 23.9847 2.01502 23.9847H2.96866L3.08191 23.8531C3.23156 23.6792 3.2316 23.4462 3.08205 23.2721L2.96894 23.1405L2.07856 23.1171C1.27354 23.0959 1.17806 23.0846 1.08309 22.9999C0.946344 22.8777 0.85377 22.655 0.878438 22.5074C0.889224 22.443 1.39406 18.9715 2.00039 14.793C2.60671 10.6145 3.12506 7.08491 3.1523 6.94938C3.19095 6.75715 3.23559 6.67729 3.35532 6.58593L3.50881 6.46888H11.0268H18.5448L18.6961 6.58429C18.7793 6.64774 18.8608 6.75279 18.877 6.8177C18.8934 6.88265 18.9905 7.51129 19.093 8.21474C19.1955 8.91818 19.2907 9.55991 19.3046 9.64086C19.36 9.96472 19.682 10.1188 19.9806 9.9644C20.2301 9.83543 20.2295 9.77386 19.963 7.9758C19.7442 6.49974 19.7032 6.35159 19.4242 6.03387C19.3488 5.94796 19.1748 5.81547 19.0376 5.73945C18.79 5.60233 18.7815 5.6012 17.9103 5.58592L17.0325 5.57058L17.0059 5.39833C16.7658 3.84212 16.2924 2.83783 15.3298 1.84279C13.9746 0.441852 12.0138 -0.227641 10.1358 0.0693069ZM11.8033 0.957477C12.368 1.04907 12.7941 1.18394 13.2826 1.42569C14.5493 2.05255 15.5495 3.24391 15.925 4.57319C16.0514 5.02063 16.1395 5.5143 16.1001 5.55379C16.0686 5.58526 5.98503 5.58526 5.95356 5.55379C5.91408 5.5143 6.00224 5.02063 6.12863 4.57319C6.50408 3.24405 7.5033 2.05373 8.771 1.42536C9.71878 0.955602 10.7811 0.791699 11.8033 0.957477ZM19.7459 11.2956C19.6512 11.3903 19.6089 11.4793 19.6089 11.5837C19.6089 11.6667 19.9583 14.1321 20.3853 17.0624C20.8124 19.9927 21.165 22.4689 21.169 22.565C21.1771 22.76 21.0538 22.9636 20.8706 23.0578C20.7824 23.1031 18.9825 23.1159 12.6065 23.1164C6.50038 23.1169 4.42943 23.1308 4.35271 23.1716C4.12676 23.292 4.05009 23.5193 4.15842 23.7477C4.19969 23.8346 4.28996 23.929 4.35909 23.9576C4.44969 23.995 6.78808 24.006 12.7385 23.9971L20.9923 23.9847L21.2603 23.8531C21.7685 23.6035 22.066 23.1145 22.0533 22.5496C22.0462 22.2387 20.5297 11.7431 20.4533 11.4768C20.3565 11.1392 19.9949 11.0466 19.7459 11.2956ZM7.33199 11.8388C7.03973 11.9658 7.04057 11.957 7.0409 14.7563C7.04104 16.3147 7.05929 17.3439 7.08864 17.4495C7.17883 17.7743 7.57275 17.8825 7.80803 17.6473L7.93165 17.5236V16.4514C7.93165 15.8617 7.93695 15.3792 7.94338 15.3792C7.9498 15.3792 8.06854 15.4223 8.20717 15.475C9.00699 15.779 9.14059 15.9541 9.50052 17.1701C9.63319 17.6182 9.76132 17.7709 10.0045 17.7709C10.3182 17.7709 10.4943 17.5278 10.4197 17.1978C10.3119 16.7204 10.0704 15.9915 9.93713 15.7412C9.75217 15.3936 9.29381 14.9635 8.94921 14.8142C8.80313 14.751 8.68382 14.6886 8.6841 14.6757C8.68434 14.6628 8.7582 14.5995 8.8482 14.5351C9.09797 14.3561 9.46474 13.8922 9.64534 13.5268C9.83096 13.1512 9.99509 12.5525 9.99509 12.251C9.99509 11.9723 9.84282 11.8151 9.57303 11.8151C9.30905 11.8151 9.17614 11.9565 9.1058 12.3123C8.96666 13.0158 8.66741 13.5573 8.23873 13.8809C8.10386 13.9828 7.97958 14.0661 7.96256 14.0661C7.94558 14.0661 7.93165 13.6215 7.93165 13.0782C7.93165 12.4602 7.91266 12.0548 7.881 11.9956C7.8531 11.9435 7.75884 11.8711 7.67147 11.8345C7.48459 11.7565 7.52262 11.756 7.33199 11.8388ZM12.7288 11.8163C11.9946 11.9214 11.3346 12.5242 11.1406 13.267C11.0571 13.5869 11.0457 15.8503 11.1257 16.2328C11.3861 17.4775 12.7798 18.1306 13.9432 17.5531C14.4517 17.3008 14.8804 16.682 14.9684 16.0735C15.0612 15.4317 15.0174 15.0211 14.8367 14.8405C14.7199 14.7236 14.7119 14.7226 13.9029 14.7226C12.9921 14.7226 12.9012 14.7478 12.8099 15.0246C12.7505 15.2043 12.796 15.3584 12.949 15.4964C13.0374 15.5763 13.1325 15.5926 13.5874 15.606C13.9817 15.6176 14.122 15.6375 14.122 15.6817C14.122 15.8793 14.0098 16.2698 13.9097 16.4212C13.6531 16.809 13.093 16.9832 12.6487 16.8136C12.3929 16.7158 12.083 16.3892 12.0154 16.1462C11.9858 16.0392 11.9652 15.4669 11.965 14.7436C11.9647 13.5278 11.9654 13.5205 12.0843 13.2819C12.28 12.8891 12.5943 12.6985 13.0478 12.6974C13.6063 12.696 13.9976 13.0659 14.0987 13.6909C14.1454 13.9793 14.1976 14.0633 14.3769 14.1382C14.7161 14.2799 14.9938 14.0469 14.9759 13.6355C14.9267 12.5038 13.8749 11.6522 12.7288 11.8163Z" fill="#05D975"/>
</svg>
